<?xml version="1.0" encoding="UTF-8"?>
<!DOCTYPE svg PUBLIC "-//W3C//DTD SVG 1.1//EN" "http://www.w3.org/Graphics/SVG/1.1/DTD/svg11.dtd">
<!-- Creator: CorelDRAW -->
<svg xmlns="http://www.w3.org/2000/svg" xml:space="preserve" width="50mm" height="20mm" version="1.1" style="shape-rendering:geometricPrecision; text-rendering:geometricPrecision; image-rendering:optimizeQuality; fill-rule:evenodd; clip-rule:evenodd"
viewBox="0 0 5000 2000"
 xmlns:xlink="http://www.w3.org/1999/xlink"
 xmlns:xodm="http://www.corel.com/coreldraw/odm/2003">
 <defs>
  <style type="text/css">
   <![CDATA[
    .str0 {stroke:black;stroke-width:7.62;stroke-linecap:round;stroke-linejoin:round;stroke-miterlimit:1145.92}
    .str1 {stroke:red;stroke-width:7.62;stroke-linecap:round;stroke-linejoin:round;stroke-miterlimit:1145.92}
    .fil1 {fill:none}
    .fil224 {fill:black}
    .fil218 {fill:blue}
    .fil221 {fill:#1C1726}
    .fil2 {fill:#22384F}
    .fil215 {fill:#264F65}
    .fil214 {fill:#295167}
    .fil213 {fill:#2B5369}
    .fil212 {fill:#2E566B}
    .fil217 {fill:#304955}
    .fil211 {fill:#30586D}
    .fil210 {fill:#335A6E}
    .fil209 {fill:#355C70}
    .fil208 {fill:#385E72}
    .fil207 {fill:#3B6074}
    .fil206 {fill:#3D6376}
    .fil205 {fill:#406578}
    .fil204 {fill:#42677A}
    .fil203 {fill:#45697C}
    .fil202 {fill:#476B7D}
    .fil201 {fill:#4A6D7F}
    .fil200 {fill:#4C7081}
    .fil199 {fill:#4F7283}
    .fil198 {fill:#527485}
    .fil197 {fill:#547687}
    .fil196 {fill:#577889}
    .fil195 {fill:#597A8B}
    .fil194 {fill:#5C7D8C}
    .fil193 {fill:#5E7F8E}
    .fil0 {fill:#5E7F91}
    .fil192 {fill:#618190}
    .fil191 {fill:#648392}
    .fil190 {fill:#668594}
    .fil189 {fill:#698796}
    .fil188 {fill:#6B8A98}
    .fil187 {fill:#6E8C9A}
    .fil186 {fill:#708E9B}
    .fil185 {fill:#73909D}
    .fil184 {fill:#75929F}
    .fil183 {fill:#7894A1}
    .fil10 {fill:#7B95A6}
    .fil12 {fill:#7B96A7}
    .fil182 {fill:#7B97A3}
    .fil181 {fill:#7D99A5}
    .fil180 {fill:#809BA7}
    .fil179 {fill:#829DA8}
    .fil178 {fill:#829DA9}
    .fil177 {fill:#839EA9}
    .fil176 {fill:#849EAA}
    .fil175 {fill:#849FAA}
    .fil223 {fill:#859AAD}
    .fil174 {fill:#859FAA}
    .fil173 {fill:#859FAB}
    .fil172 {fill:#85A0AB}
    .fil171 {fill:#86A0AB}
    .fil170 {fill:#87A1AC}
    .fil169 {fill:#87A2AC}
    .fil168 {fill:#88A2AD}
    .fil220 {fill:#894553}
    .fil167 {fill:#89A3AD}
    .fil166 {fill:#89A3AE}
    .fil165 {fill:#8AA3AE}
    .fil164 {fill:#8AA4AE}
    .fil163 {fill:#8AA4AF}
    .fil162 {fill:#8BA4AF}
    .fil161 {fill:#8BA5AF}
    .fil160 {fill:#8CA5AF}
    .fil159 {fill:#8CA5B0}
    .fil158 {fill:#8CA6B0}
    .fil157 {fill:#8DA6B0}
    .fil156 {fill:#8DA7B1}
    .fil155 {fill:#8EA7B1}
    .fil154 {fill:#8FA8B2}
    .fil153 {fill:#90A9B2}
    .fil152 {fill:#90A9B3}
    .fil151 {fill:#91A9B3}
    .fil150 {fill:#91AAB3}
    .fil149 {fill:#91AAB4}
    .fil148 {fill:#92AAB4}
    .fil147 {fill:#92ABB4}
    .fil146 {fill:#93ABB5}
    .fil145 {fill:#94ACB5}
    .fil144 {fill:#94ACB6}
    .fil143 {fill:#94ADB6}
    .fil142 {fill:#95ADB6}
    .fil141 {fill:#96AEB7}
    .fil140 {fill:#97AFB8}
    .fil139 {fill:#98AFB8}
    .fil138 {fill:#98B0B9}
    .fil137 {fill:#99B0B9}
    .fil136 {fill:#99B1BA}
    .fil135 {fill:#9AB1BA}
    .fil134 {fill:#9BB2BA}
    .fil133 {fill:#9BB2BB}
    .fil132 {fill:#9BB3BB}
    .fil131 {fill:#9CB3BB}
    .fil130 {fill:#9CB3BC}
    .fil129 {fill:#9DB4BC}
    .fil128 {fill:#9EB4BD}
    .fil127 {fill:#9EB5BD}
    .fil126 {fill:#9FB5BD}
    .fil125 {fill:#9FB6BE}
    .fil124 {fill:#A0B6BE}
    .fil123 {fill:#A1B7BF}
    .fil122 {fill:#A2B8C0}
    .fil121 {fill:#A3B9C0}
    .fil120 {fill:#A3B9C1}
    .fil119 {fill:#A4BAC1}
    .fil118 {fill:#A5BAC2}
    .fil117 {fill:#A5BBC2}
    .fil116 {fill:#A6BBC2}
    .fil115 {fill:#A6BBC3}
    .fil114 {fill:#A6BCC3}
    .fil113 {fill:#A7BCC3}
    .fil112 {fill:#A7BCC4}
    .fil111 {fill:#A8BDC4}
    .fil110 {fill:#A8BDC5}
    .fil109 {fill:#A9BEC5}
    .fil108 {fill:#AABFC5}
    .fil107 {fill:#AABFC6}
    .fil106 {fill:#ABBFC6}
    .fil105 {fill:#ABC0C6}
    .fil104 {fill:#ABC0C7}
    .fil103 {fill:#ACC0C7}
    .fil102 {fill:#ACC1C7}
    .fil101 {fill:#ADC1C8}
    .fil100 {fill:#ADC2C8}
    .fil99 {fill:#AEC2C8}
    .fil98 {fill:#AEC2C9}
    .fil97 {fill:#AFC3C9}
    .fil96 {fill:#B0C3CA}
    .fil95 {fill:#B0C4CA}
    .fil94 {fill:#B1C5CB}
    .fil93 {fill:#B2C5CB}
    .fil92 {fill:#B2C6CC}
    .fil91 {fill:#B3C6CC}
    .fil90 {fill:#B3C7CC}
    .fil89 {fill:#B4C7CD}
    .fil88 {fill:#B5C8CD}
    .fil87 {fill:#B5C8CE}
    .fil86 {fill:#B6C9CE}
    .fil85 {fill:#B6C9CF}
    .fil84 {fill:#B7C9CF}
    .fil83 {fill:#B7CACF}
    .fil82 {fill:#B7CAD0}
    .fil81 {fill:#B8CBD0}
    .fil80 {fill:#B9CBD0}
    .fil79 {fill:#B9CCD1}
    .fil78 {fill:#BACCD1}
    .fil77 {fill:#BACDD2}
    .fil76 {fill:#BBCDD2}
    .fil75 {fill:#BCCED3}
    .fil74 {fill:#BDCFD3}
    .fil73 {fill:#BDCFD4}
    .fil72 {fill:#BECFD4}
    .fil71 {fill:#BED0D4}
    .fil70 {fill:#BFD0D5}
    .fil69 {fill:#BFD1D5}
    .fil68 {fill:#C0D1D6}
    .fil67 {fill:#C0D2D6}
    .fil66 {fill:#C1D2D6}
    .fil65 {fill:#C1D2D7}
    .fil64 {fill:#C1D3D7}
    .fil63 {fill:#C2D3D7}
    .fil62 {fill:#C3D4D8}
    .fil61 {fill:#C4D4D8}
    .fil60 {fill:#C4D5D9}
    .fil59 {fill:#C5D6D9}
    .fil58 {fill:#C5D6DA}
    .fil57 {fill:#C6D6DA}
    .fil56 {fill:#C6D7DA}
    .fil55 {fill:#C6D7DB}
    .fil54 {fill:#C7D7DB}
    .fil53 {fill:#C7D8DB}
    .fil52 {fill:#C8D8DB}
    .fil51 {fill:#C8D8DC}
    .fil50 {fill:#C9D9DC}
    .fil49 {fill:#C9D9DD}
    .fil48 {fill:#CADADD}
    .fil47 {fill:#CBDADE}
    .fil46 {fill:#CBDBDE}
    .fil45 {fill:#CCDCDE}
    .fil44 {fill:#CCDCDF}
    .fil43 {fill:#CDDCDF}
    .fil42 {fill:#CDDDDF}
    .fil41 {fill:#CEDDE0}
    .fil40 {fill:#CEDEE0}
    .fil39 {fill:#CFDEE1}
    .fil38 {fill:#D0DFE1}
    .fil37 {fill:#D0DFE2}
    .fil36 {fill:#D1E0E2}
    .fil35 {fill:#D2E0E3}
    .fil34 {fill:#D2E1E3}
    .fil33 {fill:#D3E1E3}
    .fil32 {fill:#D3E2E4}
    .fil31 {fill:#D4E2E4}
    .fil30 {fill:#D4E3E5}
    .fil29 {fill:#D5E3E5}
    .fil28 {fill:#D5E4E6}
    .fil27 {fill:#D6E4E6}
    .fil26 {fill:#D7E5E6}
    .fil25 {fill:#D7E5E7}
    .fil24 {fill:#D8E5E7}
    .fil23 {fill:#D8E6E7}
    .fil22 {fill:#D8E6E8}
    .fil21 {fill:#D9E6E8}
    .fil20 {fill:#D9E7E8}
    .fil19 {fill:#DAE7E9}
    .fil18 {fill:#DAE8E9}
    .fil17 {fill:#DBE8E9}
    .fil16 {fill:#DBE9EA}
    .fil15 {fill:#DCE9EA}
    .fil14 {fill:#DDEAEB}
    .fil219 {fill:red}
    .fil3 {fill:yellow}
    .fil11 {fill:white}
    .fil4 {fill:black;fill-rule:nonzero}
    .fil7 {fill:#031A2C;fill-rule:nonzero}
    .fil6 {fill:#1C323F;fill-rule:nonzero}
    .fil8 {fill:#A58390;fill-rule:nonzero}
    .fil216 {fill:url(#id1)}
    .fil9 {fill:url(#id2)}
    .fil13 {fill:url(#id3)}
    .fil222 {fill:url(#id4)}
    .fil5 {fill:url(#id5);fill-rule:nonzero}
   ]]>
  </style>
    <clipPath id="id0">
     <path d="M4938.41 917.04c19.42,4.88 17.92,30.67 0,30.32 -36.46,0 -72.92,0 -109.38,0 -29.79,0.28 -62.78,11.23 -98.55,31.41 -121.52,78.77 -237.54,74.67 -354.87,90.6 86.33,-40.73 47.6,-246.05 -30.86,-250.71 142.55,4.2 280.55,15.96 388.59,77.66 25.64,15.32 56.38,24.08 95.96,21.49 36.37,-0.26 72.74,-0.51 109.11,-0.77zm-575.05 52.84l-2.87 -23.36 37.57 -2.85c0.53,11.12 -2.67,19.78 -11.71,24.52l-22.99 1.69z"/>
    </clipPath>
  <linearGradient id="id1" gradientUnits="userSpaceOnUse" x1="2699.28" y1="765.29" x2="3975.75" y2="765.29">
   <stop offset="0" style="stop-opacity:1; stop-color:#0E293C"/>
   <stop offset="1" style="stop-opacity:1; stop-color:#93A9BE"/>
  </linearGradient>
  <linearGradient id="id2" gradientUnits="userSpaceOnUse" x1="350.01" y1="994.7" x2="1219.65" y2="994.7">
   <stop offset="0" style="stop-opacity:1; stop-color:#142736"/>
   <stop offset="1" style="stop-opacity:1; stop-color:#8CA3B5"/>
  </linearGradient>
  <linearGradient id="id3" gradientUnits="userSpaceOnUse" x1="2709.87" y1="758.52" x2="3942.9" y2="758.52">
   <stop offset="0" style="stop-opacity:1; stop-color:#7C9CAE"/>
   <stop offset="0.729412" style="stop-opacity:1; stop-color:#BDCDD6"/>
   <stop offset="1" style="stop-opacity:1; stop-color:white"/>
  </linearGradient>
  <linearGradient id="id4" gradientUnits="userSpaceOnUse" x1="190.59" y1="469.41" x2="281.53" y2="469.41">
   <stop offset="0" style="stop-opacity:1; stop-color:#8495A6"/>
   <stop offset="1" style="stop-opacity:1; stop-color:#1F3847"/>
  </linearGradient>
  <linearGradient id="id5" gradientUnits="userSpaceOnUse" x1="2367.87" y1="1515.31" x2="3046.27" y2="1515.31">
   <stop offset="0" style="stop-opacity:1; stop-color:#1C3F50"/>
   <stop offset="0.788235" style="stop-opacity:1; stop-color:#18384A"/>
   <stop offset="1" style="stop-opacity:1; stop-color:#143143"/>
  </linearGradient>
 </defs>
 <g id="Capa_x0020_2">
  <metadata id="CorelCorpID_0Corel-Layer"/>
  <g>
   <path class="fil0" d="M4375.61 1069.37c86.33,-40.73 47.6,-246.05 -30.86,-250.71 -135.11,-7.79 -270.22,-15.57 -405.33,-23.36l-1.13 0.33c17.71,20.14 -20.77,44.71 -31.02,42.19 -179.19,24.06 -371.58,20.59 -567.05,10.68 -18.7,5.56 -37.92,7.71 -57.82,5.61l-420.69 11.52 222.27 5.42c124.26,9.09 281.01,-0.5 372.78,27.27 98.85,54.25 102.99,247.11 -78.5,269.32l-260.72 30.03 -4.68 2.46 574.17 -70.28 19.68 -1.73 -0.01 0c59.09,-11.91 118.18,-23.81 177.27,-35.72 -0.26,7.92 -2.32,14.82 -6.18,20.7l121.7 -10.69c-26.4,-3.44 -47.01,-9.4 -46.39,-16.14 41.93,1.11 102.71,4.45 154.06,6.68l268.45 -23.58zm-3450.53 380.85l-94.41 10.88 -263.7 2.18 12.8 46.9 440.63 -53.93c-29.64,-6 -62.36,-6.24 -95.32,-6.03zm2036.02 -623.23c-27.56,-1.34 -55.05,-2.52 -82.45,-3.51 -70.18,0.64 -131.62,-8.98 -164.02,-52.68 -8.55,-13.51 -4.9,-24.92 5.53,-32.98l-6 -0.67c-250.28,60.55 -485,6.61 -584.1,61.6 0,-16.07 0,-32.15 0,-48.22 -78.39,22.1 -163.44,87.39 -236.56,75.19l0 8.14c12.15,-0.03 20.24,3.09 24.96,8.79l315.3 7.68c24.51,-3.54 50.46,-3.7 78.85,1.92l-0.01 0 393.23 9.58c15.55,-18.91 34.71,-35.57 78.3,-36.93l176.97 2.09zm1105.42 122.95c0.31,8.96 0.61,17.91 0.92,26.87 -21.3,0.91 -42.6,1.83 -63.9,2.74 26.66,-6.81 55.19,-12.62 62.98,-29.61zm141.66 8.14c63.29,-4.8 126.59,-9.61 189.88,-14.41 0.53,11.12 -2.67,19.78 -11.71,24.52 -53.13,3.92 -106.25,7.83 -159.38,11.75 -9.06,-1.22 -16.19,-6.63 -18.79,-21.86zm-346.91 19.36c33.01,-43.26 67.6,-61.01 105.52,-25.69 7.23,9.75 19.58,1.83 12.54,-10.56 -43.25,-35.75 -88.07,-31.35 -122.67,23.7 -8.1,13.82 2,18.73 4.61,12.55zm-1960.32 -135.22l-18.02 -1.06 -759.42 81.64c32.01,-0.18 64.05,0.06 96.14,0.75l-764.46 126.27 1445.76 -207.6zm-1564.64 224.67c-26.52,-0.08 -59.52,-3.69 -62.87,-33.78 0.6,-14.93 6.69,-25.34 15.62,-32.64l-218.55 5.1 292.53 142.62c1.02,-12.41 2.2,-24.99 3.52,-37.75 -69.38,8.42 -95.63,-11.16 -122.61,-30.29l92.36 -13.26zm251.88 169.08l1.63 11.31 -1.63 -11.31zm2938.57 13.62l47.82 0 103.05 -118.59 -83.35 10.2 -67.52 108.39z"/>
   <path id="_1" class="fil1 str0" d="M4375.61 1069.37c86.33,-40.73 47.6,-246.05 -30.86,-250.71 -135.11,-7.79 -270.22,-15.57 -405.33,-23.36l-1.13 0.33c17.71,20.14 -20.77,44.71 -31.02,42.19 -179.19,24.06 -371.58,20.59 -567.05,10.68 -18.7,5.56 -37.92,7.71 -57.82,5.61l-420.69 11.52 222.27 5.42c124.26,9.09 281.01,-0.5 372.78,27.27 98.85,54.25 102.99,247.11 -78.5,269.32l-260.72 30.03 -4.68 2.46 574.17 -70.28 19.68 -1.73 -0.01 0c59.09,-11.91 118.18,-23.81 177.27,-35.72 -0.26,7.92 -2.32,14.82 -6.18,20.7l121.7 -10.69c-26.4,-3.44 -47.01,-9.4 -46.39,-16.14 41.93,1.11 102.71,4.45 154.06,6.68l268.45 -23.58zm-3450.53 380.85l-94.41 10.88 -263.7 2.18 12.8 46.9 440.63 -53.93c-29.64,-6 -62.36,-6.24 -95.32,-6.03zm2036.02 -623.23c-27.56,-1.34 -55.05,-2.52 -82.45,-3.51 -70.18,0.64 -131.62,-8.98 -164.02,-52.68 -8.55,-13.51 -4.9,-24.92 5.53,-32.98l-6 -0.67c-250.28,60.55 -485,6.61 -584.1,61.6 0,-16.07 0,-32.15 0,-48.22 -78.39,22.1 -163.44,87.39 -236.56,75.19l0 8.14c12.15,-0.03 20.24,3.09 24.96,8.79l315.3 7.68c24.51,-3.54 50.46,-3.7 78.85,1.92l-0.01 0 393.23 9.58c15.55,-18.91 34.71,-35.57 78.3,-36.93l176.97 2.09zm1105.42 122.95c0.31,8.96 0.61,17.91 0.92,26.87 -21.3,0.91 -42.6,1.83 -63.9,2.74 26.66,-6.81 55.19,-12.62 62.98,-29.61zm141.66 8.14c63.29,-4.8 126.59,-9.61 189.88,-14.41 0.53,11.12 -2.67,19.78 -11.71,24.52 -53.13,3.92 -106.25,7.83 -159.38,11.75 -9.06,-1.22 -16.19,-6.63 -18.79,-21.86zm-346.91 19.36c33.01,-43.26 67.6,-61.01 105.52,-25.69 7.23,9.75 19.58,1.83 12.54,-10.56 -43.25,-35.75 -88.07,-31.35 -122.67,23.7 -8.1,13.82 2,18.73 4.61,12.55zm-1960.32 -135.22l-18.02 -1.06 -759.42 81.64c32.01,-0.18 64.05,0.06 96.14,0.75l-764.46 126.27 1445.76 -207.6zm-1564.64 224.67c-26.52,-0.08 -59.52,-3.69 -62.87,-33.78 0.6,-14.93 6.69,-25.34 15.62,-32.64l-218.55 5.1 292.53 142.62c1.02,-12.41 2.2,-24.99 3.52,-37.75 -69.38,8.42 -95.63,-11.16 -122.61,-30.29l92.36 -13.26zm251.88 169.08l1.63 11.31m2936.94 2.31l47.82 0 103.05 -118.59 -83.35 10.2 -67.52 108.39z"/>
  </g>
  <path class="fil2 str0" d="M123.92 303.38l230.03 626.82c4.76,21.35 3.42,38.96 -3.76,52.99 256.83,-30.59 513.85,-58.97 773.32,-60.39l759.42 -81.64 36.04 2.12c-4.64,-6.11 -12.87,-9.45 -25.47,-9.42l0 -32.62 17.99 -0.56 0 -99.56 -467.6 57.7c-18.76,2.99 -32.58,-1.53 -50.29,-12.02l-744.46 -371.83 -480.43 50.46 -44.79 -122.05zm74.33 152.95l72.33 -12.98c5.04,-0.91 9.89,2.47 10.8,7.51 0.9,5.04 -2.48,9.89 -7.51,10.79l-72.33 12.98c-5.04,0.91 -9.89,-2.47 -10.8,-7.51 -0.9,-5.04 2.48,-9.89 7.51,-10.79zm6.46 28.67l41.69 -7.48c2.9,-0.53 5.7,1.42 6.22,4.32 0.52,2.91 -1.43,5.7 -4.32,6.22l-41.69 7.48c-2.9,0.53 -5.7,-1.42 -6.22,-4.32 -0.52,-2.91 1.43,-5.7 4.32,-6.22zm208.45 155.92l56.73 -11.53 3.24 15.96 -33.7 6.85 2.64 12.96 28.83 -5.86 3.05 15.05 -28.83 5.86 6.16 30.28 -23.03 4.68 -15.09 -74.25zm168.69 30.28l-25.99 5.29 -1.25 12.99 -23.42 4.76 12.86 -79.93 25.12 -5.1 42.91 68.59 -24.02 4.89 -6.21 -11.49zm-8.12 -15.08l-13.54 -25.05 -2.71 28.35 16.25 -3.3zm138.13 -30.24l21.35 1.98c-0.21,5.91 -1.38,11.06 -3.53,15.42 -2.13,4.38 -5.15,7.97 -9.08,10.75 -3.91,2.8 -9.19,4.88 -15.85,6.24 -8.09,1.64 -14.92,1.8 -20.53,0.51 -5.59,-1.31 -10.84,-4.54 -15.75,-9.68 -4.91,-5.14 -8.32,-12.33 -10.19,-21.52 -2.5,-12.28 -1.14,-22.38 4.04,-30.32 5.22,-7.91 13.8,-13.09 25.76,-15.52 9.35,-1.9 17.1,-1.51 23.23,1.18 6.11,2.7 11.28,7.7 15.47,15.02l-19.32 8.59c-1.16,-2.11 -2.24,-3.6 -3.23,-4.48 -1.65,-1.48 -3.49,-2.51 -5.54,-3.07 -2.06,-0.57 -4.22,-0.62 -6.53,-0.15 -5.21,1.06 -8.78,3.97 -10.7,8.7 -1.47,3.52 -1.53,8.6 -0.18,15.23 1.67,8.22 4.06,13.58 7.19,16.14 3.12,2.53 6.93,3.34 11.47,2.41 4.39,-0.89 7.45,-2.79 9.2,-5.71 1.75,-2.92 2.65,-6.83 2.72,-11.72zm-182.01 -96.14l103.23 -11.47 0.96 36.67 -104.25 9.18 0.06 -34.38zm-113.68 -66.59c-1.48,-26.32 224.64,-46.97 224.42,-27.89 1.26,26.54 -12.42,40.94 -38.04,45.64 -32.12,3.38 -64.24,6.76 -96.36,10.14 -33.16,5.21 -59.38,-23.01 -90.02,-27.89z"/>
  <path class="fil3 str0" d="M649.14 374.97l-480.43 50.46 -44.79 -122.05 332.79 -24.52 192.43 96.11zm-119.29 154.77l103.23 -11.47 0.96 36.67 -104.25 9.18 0.06 -34.38zm-335.72 -205.59l24.96 -1.83 -5.62 29.12 31.82 -31.04 33.24 -2.43 -35.12 31.12 21.6 45.87 -30.76 2.25 -10.96 -30.4 -15.45 13.83 -3.63 18.77 -24.98 1.83 14.9 -77.09zm94.13 -6.89l61.8 -4.53 -3.2 16.57 -36.71 2.69 -2.6 13.46 31.41 -2.3 -3.02 15.62 -31.41 2.3 -6.08 31.44 -25.09 1.84 14.9 -77.09zm76.27 -5.59l25.09 -1.84 -14.9 77.1 -25.07 1.83 14.88 -77.09zm28.41 73.92l14.88 -77.09 41.66 -3.05c7.73,-0.57 13.52,-0.38 17.34,0.6 3.85,0.96 6.69,3.07 8.54,6.29 1.84,3.25 2.27,7.34 1.33,12.25 -0.83,4.28 -2.51,8.04 -5.03,11.29 -2.5,3.27 -5.62,5.96 -9.37,8.15 -2.36,1.38 -5.49,2.61 -9.37,3.7 2.8,0.73 4.79,1.5 5.96,2.36 0.78,0.55 1.86,1.82 3.21,3.76 1.33,1.94 2.18,3.45 2.55,4.53l7.85 21.39 -28.25 2.07 -8.82 -22.54c-1.09,-2.92 -2.21,-4.78 -3.36,-5.6 -1.58,-1.06 -3.51,-1.5 -5.81,-1.33l-2.19 0.16 -6.03 31.23 -25.09 1.83zm33.92 -47.6l10.56 -0.77c1.14,-0.09 3.43,-0.61 6.84,-1.55 1.71,-0.42 3.23,-1.33 4.52,-2.72 1.3,-1.38 2.13,-2.91 2.45,-4.6 0.48,-2.49 0.02,-4.35 -1.37,-5.55 -1.41,-1.24 -4.39,-1.67 -8.95,-1.34l-11 0.81 -3.05 15.72z"/>
  <path class="fil4 str0" d="M426.86 337.99l10.56 -0.77c1.14,-0.09 3.43,-0.61 6.84,-1.55 1.71,-0.42 3.23,-1.33 4.52,-2.72 1.3,-1.38 2.13,-2.91 2.45,-4.6 0.48,-2.49 0.02,-4.35 -1.37,-5.55 -1.41,-1.24 -4.39,-1.67 -8.95,-1.34l-11 0.81 -3.05 15.72z"/>
  <path class="fil4 str0" d="M392.94 385.59l14.88 -77.09 41.66 -3.05c7.73,-0.57 13.52,-0.38 17.34,0.6 3.85,0.96 6.69,3.07 8.54,6.29 1.84,3.25 2.27,7.34 1.33,12.25 -0.83,4.28 -2.51,8.04 -5.03,11.29 -2.5,3.27 -5.62,5.96 -9.37,8.15 -2.36,1.38 -5.49,2.61 -9.37,3.7 2.8,0.73 4.79,1.5 5.96,2.36 0.78,0.55 1.86,1.82 3.21,3.76 1.33,1.94 2.18,3.45 2.55,4.53l7.85 21.39 -28.25 2.07 -8.82 -22.54c-1.09,-2.92 -2.21,-4.78 -3.36,-5.6 -1.58,-1.06 -3.51,-1.5 -5.81,-1.33l-2.19 0.16 -6.03 31.23 -25.09 1.83zm20.22 255.33l56.73 -11.53 3.24 15.96 -33.7 6.85 2.64 12.96 28.83 -5.86 3.05 15.05 -28.83 5.86 6.16 30.28 -23.03 4.68 -15.09 -74.25zm168.69 30.28l-25.99 5.29 -1.25 12.99 -23.42 4.76 12.86 -79.93 25.12 -5.1 42.91 68.59 -24.02 4.89 -6.21 -11.49zm-8.12 -15.08l-13.54 -25.05 -2.71 28.35 16.25 -3.3zm138.13 -30.24l21.35 1.98c-0.21,5.91 -1.38,11.06 -3.53,15.42 -2.13,4.38 -5.15,7.97 -9.08,10.75 -3.91,2.8 -9.19,4.88 -15.85,6.24 -8.09,1.64 -14.92,1.8 -20.53,0.51 -5.59,-1.31 -10.84,-4.54 -15.75,-9.68 -4.91,-5.14 -8.32,-12.33 -10.19,-21.52 -2.5,-12.28 -1.14,-22.38 4.04,-30.32 5.22,-7.91 13.8,-13.09 25.76,-15.52 9.35,-1.9 17.1,-1.51 23.23,1.18 6.11,2.7 11.28,7.7 15.47,15.02l-19.32 8.59c-1.16,-2.11 -2.24,-3.6 -3.23,-4.48 -1.65,-1.48 -3.49,-2.51 -5.54,-3.07 -2.06,-0.57 -4.22,-0.62 -6.53,-0.15 -5.21,1.06 -8.78,3.97 -10.7,8.7 -1.47,3.52 -1.53,8.6 -0.18,15.23 1.67,8.22 4.06,13.58 7.19,16.14 3.12,2.53 6.93,3.34 11.47,2.41 4.39,-0.89 7.45,-2.79 9.2,-5.71 1.75,-2.92 2.65,-6.83 2.72,-11.72z"/>
  <polygon class="fil4 str0" points="364.53,311.67 389.62,309.83 374.72,386.93 349.65,388.76 "/>
  <polygon class="fil4 str0" points="288.26,317.26 350.06,312.73 346.86,329.3 310.15,331.99 307.55,345.45 338.96,343.15 335.94,358.77 304.53,361.07 298.45,392.51 273.36,394.35 "/>
  <polygon class="fil4 str0" points="2026.13,1003.5 2068.9,1003.5 2068.9,1068.31 2026.13,1068.31 "/>
  <path class="fil4 str0" d="M2243.89 1034.61c-33.27,0.87 -66.53,1.73 -99.8,2.6 24.07,22.57 57.93,35.38 99.8,40.18 0,-14.26 0,-28.52 0,-42.78z"/>
  <polygon class="fil4 str0" points="1613.94,943.59 1680.3,943.59 1688.58,976.29 1622.22,976.29 "/>
  <polygon class="fil4 str0" points="862.15,1022.72 882.11,1054.65 806.27,1058.64 791.33,1027.42 "/>
  <polygon class="fil4 str0" points="2311.31,905.62 2312.61,852.25 2119.08,905.53 "/>
  <path class="fil4 str0" d="M3861.27 977.44c33.01,-43.26 67.6,-61.01 105.52,-25.69 7.23,9.75 19.58,1.83 12.54,-10.56 -43.25,-35.75 -88.07,-31.35 -122.67,23.7 -8.1,13.82 2,18.73 4.61,12.55z"/>
  <path class="fil5 str0" d="M2367.87 1629.63l185.69 -14.29c174.52,-28.83 342.26,-72.24 492.71,-153.2 -100.53,-38.53 -207.1,-54.41 -316.11,-61.14l-279.58 146.75c31.71,0 63.41,0 95.12,0l-177.83 81.88z"/>
  <polygon class="fil6 str0" points="699.58,1542.74 754.21,1542.74 754.21,1577.34 699.58,1577.34 "/>
  <polygon class="fil6 str0" points="611.26,1520.89 665.89,1520.89 665.89,1555.49 611.26,1555.49 "/>
  <path class="fil4 str0" d="M469.62 1474.14c51.69,59.48 105.59,114.94 206.73,84.44 26.5,47.4 72.49,40.24 123.9,17.93 39.1,6.2 74.75,8.31 86.41,-17.93l315.3 -34.42 -153.6 -60c-8.93,-3.38 -18.28,-5.95 -27.96,-7.91l-440.63 53.93 -12.8 -46.9 -31.15 0.26 -0.11 -0.22c8.21,-4.12 15.55,-9.37 22.04,-15.7l0.95 -0.94c36.17,-36.39 45.1,-107.76 29.49,-210.71 -12.63,-91.26 -38.8,-93.25 -103.53,-108.98 -39.37,-5.52 -78.73,-11.03 -118.1,-16.55 -18.86,182.28 -9.54,331.54 99.93,363.47l3.13 0.23z"/>
  <path class="fil7 str0" d="M1056.01 1597.59c50.29,26.1 100.59,52.21 150.88,78.31 35.02,-5.09 70.03,-10.19 105.05,-15.28 97.98,27.14 201.3,34.65 308.72,27.09l-304.73 -119.03c-19.46,7.79 -35.12,17.1 -43.46,29.33 -72.15,-0.14 -144.31,-0.28 -216.46,-0.42z"/>
  <path class="fil4 str0" d="M1757.89 1841.85l902.39 -50.79c13.43,-0.76 23.56,-12.75 22.58,-26.17 -0.99,-13.41 -12.74,-23.33 -26.17,-22.58l-607.89 34.21 -8.76 4.04 -103.3 2.27 -182.44 10.27c-13.42,0.75 -23.56,12.75 -22.58,26.17 0.99,13.41 12.74,23.34 26.17,22.58z"/>
  <path class="fil4 str0" d="M2141.86 1293.17c91.64,-8.58 183.28,-17.15 274.92,-25.73 25.19,13.4 50.37,26.8 75.56,40.2 -46.62,30.55 -93.25,61.09 -139.87,91.64 -22.06,13.42 -41.72,10.09 -59.49,-6.43 -50.37,-33.23 -100.75,-66.45 -151.12,-99.68z"/>
  <path class="fil8 str0" d="M2020.88 1767.26c-9.62,0.34 -19.23,0.69 -28.85,1.03 3.05,-33.77 -24.58,-55.63 -65.95,-72.13 -217.99,-102.97 -435.98,-205.95 -653.97,-308.92 232.53,-32.83 465.05,-65.67 697.58,-98.5 337.92,-61.78 656.79,-66.51 978.55,-79.87 9.99,14.23 19.99,28.47 29.98,42.7 -5.15,2.73 -10.3,5.45 -15.45,8.18 -11.51,-12.42 -23.01,-24.84 -34.52,-37.26 -162.21,9.99 -324.44,20.96 -486.64,22 24.38,10.1 48.77,20.21 73.15,30.31 20.57,8.63 36.52,19.03 1.05,49.12 -47.38,31 -94.75,62.01 -142.13,93.01 -44.42,32.07 -83.96,18.78 -122.27,-6.27 -52.61,-29.28 -105.21,-58.57 -157.82,-87.85 -22.41,-18.55 -48.95,-23.27 -79.68,-14.06 -82.29,17.71 -164.57,35.41 -246.86,53.12 1.19,26.79 2.39,53.59 3.58,80.38 2.62,41.46 -47.72,46.9 -55.7,3.6 -1.8,-20.96 -3.6,-57.82 -5.4,-78.78 -103.02,7.79 -206.03,31.46 -309.05,39.25 174.38,81.24 348.75,169.13 523.13,250.37 65.28,19.05 102.35,61.4 97.27,110.57z"/>
  <polygon class="fil4 str0" points="2345.86,1639.76 2360.96,1685.65 2310.26,1687.86 2311.07,1709.03 2266.37,1710.74 2265.55,1698.42 2220.55,1697.45 "/>
  <polygon class="fil4 str0" points="194.13,324.15 219.09,322.32 213.47,351.44 245.29,320.4 278.53,317.97 243.41,349.09 265.01,394.96 234.25,397.21 223.29,366.81 207.84,380.64 204.21,399.41 179.23,401.24 "/>
  <path class="fil1 str0" d="M416.17 463.15c-1.48,-26.32 224.64,-46.97 224.42,-27.89 1.26,26.54 -12.42,40.94 -38.04,45.64 -32.12,3.38 -64.24,6.76 -96.36,10.14 -33.16,5.21 -59.38,-23.01 -90.02,-27.89z"/>
  <path class="fil9 str0" d="M353.22 1066.66c288.81,-47.7 577.62,-95.41 866.43,-143.11 -292.26,-6.3 -581.07,25.29 -869.64,59.66 21.43,13.02 23.24,64.88 3.21,83.45z"/>
  <path class="fil1 str0" d="M273.44 1033.11c1.69,-41.82 46.29,-48.24 76.57,-49.9 21.43,13.02 23.24,64.88 3.21,83.45 -26.59,0.4 -75.66,3.5 -79.78,-33.55z"/>
  <polygon class="fil10 str0" points="2026.13,1003.5 2068.9,1003.5 2068.9,1068.31 2026.13,1068.31 "/>
  <path class="fil10 str0" d="M2243.89 1034.61c-33.27,0.87 -66.53,1.73 -99.8,2.6 24.07,22.57 57.93,35.38 99.8,40.18 0,-14.26 0,-28.52 0,-42.78z"/>
  <polygon class="fil10 str0" points="1613.94,943.59 1680.3,943.59 1688.58,976.29 1622.22,976.29 "/>
  <polygon class="fil10 str0" points="862.15,1022.72 882.11,1054.65 806.27,1058.64 791.33,1027.42 "/>
  <path class="fil10 str0" d="M2943.77 1004.64c45.59,-56.58 246.35,-58.03 432.34,-64.72 -81.12,54.37 -162.24,108.73 -243.36,163.1 -30.24,1.43 -60.48,2.86 -90.72,4.29 -32.75,-34.22 -65.51,-68.45 -98.26,-102.67z"/>
  <path class="fil10 str0" d="M3392.93 1020.46l78.53 0 0 34.57c0,19.02 -15.55,34.57 -34.57,34.57l-9.39 0c-19.02,0 -34.57,-15.55 -34.57,-34.57l0 -34.57z"/>
  <path class="fil10 str0" d="M535.82 1463.54c98.28,-0.81 196.57,-1.63 294.85,-2.44l94.41 -10.88c-25.96,0.17 -52.07,0.61 -76.94,-1.28 97.06,-56.02 209.8,-63.88 301.26,-70.61 251.47,-52.02 516.56,-94.18 779.11,-125.38 9.43,-2.93 20.05,-6.04 31.93,-9.35 244.7,-37.75 765.32,-72.45 1086.13,-53.09 27.18,0.57 53.94,1.32 80.25,2.29l-9.28 4.87 260.72 -30.03c181.49,-22.21 177.35,-215.07 78.5,-269.32 -91.77,-27.77 -248.52,-18.18 -372.78,-27.27l-222.26 -5.42 -162.44 4.46c2.15,-2.77 4.31,-5.54 6.55,-8.26l-393.22 -9.58 -1.3 53.37 -192.23 -0.09c-22.86,0.13 -45.72,0.27 -68.58,0.4 63.43,-12.99 118.32,-46.21 183.27,-55.6l-332.82 -8.11c-552.33,79.31 -1104.67,158.62 -1657,237.93 26.98,19.13 53.23,38.71 122.61,30.29 39.37,5.52 78.73,11.03 118.1,16.55 64.73,15.73 90.9,17.72 103.53,108.98 18.52,122.06 2.5,199.76 -52.48,227.35l0.11 0.22z"/>
  <path class="fil11 str0" d="M467.93 1169.68c52.8,0 95.57,57.91 95.57,129.34 0,71.42 -42.77,129.33 -95.57,129.33 -52.78,0 -95.55,-57.91 -95.55,-129.33 0,-55.94 26.24,-103.59 62.97,-121.62 -22.08,16.88 -37.76,59.64 -37.76,109.74 0,64.87 26.29,117.46 58.73,117.46 32.44,0 58.73,-52.59 58.73,-117.46 0,-61.78 -23.84,-112.43 -54.14,-117.11 2.32,-0.22 4.66,-0.35 7.02,-0.35z"/>
  <path class="fil1 str0" d="M2050.5 905.93c87.37,-17.89 158.52,-74.19 262.11,-53.68 -64.51,17.76 -129.02,35.52 -193.53,53.28 -22.86,0.13 -45.72,0.27 -68.58,0.4z"/>
  <path class="fil1 str0" d="M4208.18 958.08c63.29,-4.8 126.59,-9.61 189.88,-14.41 0.53,11.12 -2.67,19.78 -11.71,24.52 -53.13,3.92 -106.25,7.83 -159.38,11.75 -9.06,-1.22 -16.19,-6.63 -18.79,-21.86z"/>
  <path class="fil1 str0" d="M4066.52 949.94c0.31,8.96 0.61,17.91 0.92,26.87 -21.3,0.91 -42.6,1.83 -63.9,2.74 26.66,-6.81 55.19,-12.62 62.98,-29.61z"/>
  <path class="fil12 str0" d="M2943.77 1004.64c45.59,-56.58 246.35,-58.03 432.34,-64.72 -81.12,54.37 -162.24,108.73 -243.36,163.1 -30.24,1.43 -60.48,2.86 -90.72,4.29 -32.75,-34.22 -65.51,-68.45 -98.26,-102.67z"/>
  <path class="fil13 str0" d="M2714.63 770.8c-15.36,-24.29 8.66,-41.81 40.66,-45.18 158.7,-11.88 390.34,-43.86 581.29,-64.63l0.67 2.01 0.08 0.23 0.07 0.19 0.79 1.99 0.06 0.13 0.66 1.45 0.33 0.7 0.15 0.29 1 1.92 0.03 0.07 1.13 1.97 0.1 0.16 0.5 0.82 0.62 0.98 0.25 0.4 0.39 0.58 0.66 0.98 0.43 0.62 0.25 0.36 1.33 1.82 0.09 0.13 1.49 1.94 0.08 0.1 0.69 0.87 0.79 0.97 0.27 0.33 0.53 0.64 0.82 0.97 0.47 0.55 0.36 0.41 1.54 1.74 0.16 0.19 1.76 1.92 0.04 0.04 1.76 1.88 0.25 0.26 0.66 0.7 0.93 0.96 0.47 0.48 0.46 0.48 0.95 0.95 0.7 0.71 0.25 0.25 0.95 0.95 0.94 0.93 0.03 0.03 0.97 0.95 0.97 0.96 0.21 0.2 0.77 0.75 0.98 0.95 0.44 0.43 0.55 0.53 0.99 0.95 0.67 0.64 0.32 0.31 1 0.95 0.9 0.87 0.09 0.09 0.99 0.95 1 0.95 0.15 0.14 0.84 0.81 1 0.96 0.37 0.36 0.62 0.59 0.98 0.95 0.61 0.59 0.38 0.36 0.98 0.96 0.83 0.81 0.14 0.14 0.98 0.96 0.96 0.95 0.08 0.08 0.88 0.88 0.95 0.95 0.3 0.3 0.65 0.66 0.93 0.95 0.52 0.53 0.41 0.43 0.92 0.96c19.29,20.24 31.94,41 12.22,64.32l0 -0.03c0,-7.36 -6.01,-13.37 -13.37,-13.37l-68.33 0c-7.36,0 -13.37,6.01 -13.37,13.37l0 39.91c0,0.94 0.1,1.85 0.28,2.73 -10.39,1.43 -19.84,1.31 -29.08,0.96 -105.37,-1.25 -210.73,-2.49 -316.1,-3.74 -27.56,-1.34 -55.05,-2.52 -82.45,-3.51 -70.18,0.64 -131.62,-8.98 -164.02,-52.68zm661.78 69.61c99.77,0 199.55,0 299.32,0 25.33,-30.24 38.66,-69.49 28.85,-126.11 2.77,-1.02 5.54,-2.04 8.31,-3.06 6.6,-2.08 12.94,-4.7 19.52,-7.15 17.42,50.72 10.05,94.88 -13.69,134.71 61.98,3.9 123.51,2.82 183.92,-10.54 17.95,1.49 20.07,-42.92 0.11,-49.22 80.03,18.76 17.97,62.09 4.52,58.78 -179.19,24.06 -371.58,20.59 -567.05,10.68 7.62,-2.26 15.15,-5.09 22.6,-8.42 4.72,-1.74 9.45,-3.48 14.17,-5.22l-0.01 0.09 -0.01 0.08 -0.01 0.09 -0.01 0.09 0 0.03 0 0.05 -0.01 0.09 -0.01 0.09 -0.01 0.08 -0.01 0.09 -0.01 0.09 -0.01 0.08 -0.01 0.09 -0.01 0.09 -0.01 0.08 0 0.03 0 0.06 -0.01 0.09 -0.01 0.08 -0.01 0.09 -0.01 0.09 -0.01 0.08 -0.01 0.09 -0.01 0.09 -0.01 0.08 -0.01 0.09 -0.01 0.09 -0.01 0.08 0 0.05 0 0.04 -0.01 0.09 -0.01 0.08 -0.01 0.09 -0.01 0.09 -0.01 0.09 -0.01 0.08 -0.01 0.09 -0.01 0.09 -0.01 0.08 -0.01 0.09 0 0.04 0 0.05 -0.01 0.08 -0.01 0.09 -0.01 0.09 -0.01 0.08 -0.01 0.09 -0.01 0.09 -0.01 0.08 -0.01 0.09 -0.01 0.09 -0.01 0.08 -0.01 0.09 0 0.06 0 0.03 -0.01 0.08 -0.01 0.09 -0.01 0.09 -0.01 0.08 -0.01 0.09 -0.01 0.09 -0.01 0.08 -0.01 0.09 -0.01 0.09 0 0.05 0 0.03 -0.01 0.09 -0.01 0.09 -0.01 0.08 -0.01 0.09zm321.47 -155.21c-1.59,-5.64 -3.38,-11.43 -5.39,-17.38 6.88,3.64 13.75,7.28 20.63,10.92 -5.09,2.11 -10.16,4.31 -15.24,6.46z"/>
  <path class="fil1 str0" d="M3675.73 840.41c-99.77,0 -199.55,0 -299.32,0l0.58 -5.55 327.59 -120.56c9.81,56.62 -3.52,95.87 -28.85,126.11zm-295.57 -35.47c84.14,-55.77 -29.05,-95.97 -43.58,-143.95 26.96,-5.57 301.03,-49.43 355.91,6.83 2.01,5.95 3.8,11.74 5.39,17.38 -9.24,3.91 -18.53,7.66 -28.15,10.39l-289.57 109.35zm338.56 33.86c23.74,-39.83 31.11,-83.99 13.69,-134.71 5.74,-2.14 11.65,-4.16 18.07,-5.59l152.27 80.54c19.96,6.3 17.84,50.71 -0.11,49.22 -60.41,13.36 -121.94,14.44 -183.92,10.54z"/>
  <g>
   <g style="clip-path:url(#id0)">
    <polygon class="fil14" points="4666.82,959.06 4198.21,957.87 4198.63,950.76 "/>
    <polygon id="_1_0" class="fil15" points="4666.82,959.06 4198.56,951.94 4199.27,946.02 "/>
    <polygon id="_2" class="fil15" points="4666.82,959.06 4199.12,947.2 4200.18,941.29 "/>
    <polygon id="_3" class="fil16" points="4666.82,959.06 4199.97,942.47 4201.38,936.57 "/>
    <polygon id="_4" class="fil17" points="4666.82,959.06 4201.1,937.75 4202.86,931.86 "/>
    <polygon id="_5" class="fil18" points="4666.82,959.06 4202.51,933.04 4204.62,927.17 "/>
    <polygon id="_6" class="fil18" points="4666.82,959.06 4204.19,928.35 4206.65,922.5 "/>
    <polygon id="_7" class="fil19" points="4666.82,959.06 4206.16,923.67 4208.96,917.85 "/>
    <polygon id="_8" class="fil20" points="4666.82,959.06 4208.4,919.02 4211.55,913.23 "/>
    <polygon id="_9" class="fil21" points="4666.82,959.06 4210.92,914.39 4214.42,908.64 "/>
    <polygon id="_10" class="fil22" points="4666.82,959.06 4213.72,909.79 4217.55,904.07 "/>
    <polygon id="_11" class="fil23" points="4666.82,959.06 4216.78,905.21 4220.96,899.54 "/>
    <polygon id="_12" class="fil24" points="4666.82,959.06 4220.12,900.67 4224.63,895.04 "/>
    <polygon id="_13" class="fil25" points="4666.82,959.06 4223.73,896.17 4228.57,890.58 "/>
    <polygon id="_14" class="fil26" points="4666.82,959.06 4227.6,891.7 4232.78,886.17 "/>
    <polygon id="_15" class="fil27" points="4666.82,959.06 4231.74,887.27 4237.24,881.79 "/>
    <polygon id="_16" class="fil27" points="4666.82,959.06 4236.14,882.89 4241.97,877.47 "/>
    <polygon id="_17" class="fil28" points="4666.82,959.06 4240.8,878.55 4246.95,873.19 "/>
    <polygon id="_18" class="fil29" points="4666.82,959.06 4245.72,874.26 4252.18,868.97 "/>
    <polygon id="_19" class="fil29" points="4666.82,959.06 4250.89,870.03 4257.67,864.79 "/>
    <polygon id="_20" class="fil30" points="4666.82,959.06 4256.31,865.84 4263.4,860.68 "/>
    <polygon id="_21" class="fil31" points="4666.82,959.06 4261.98,861.71 4269.37,856.63 "/>
    <polygon id="_22" class="fil32" points="4666.82,959.06 4267.89,857.64 4275.58,852.63 "/>
    <polygon id="_23" class="fil32" points="4666.82,959.06 4274.05,853.63 4282.03,848.7 "/>
    <polygon id="_24" class="fil33" points="4666.82,959.06 4280.44,849.69 4288.71,844.84 "/>
    <polygon id="_25" class="fil34" points="4666.82,959.06 4287.06,845.81 4295.62,841.05 "/>
    <polygon id="_26" class="fil35" points="4666.82,959.06 4293.91,842 4302.75,837.32 "/>
    <polygon id="_27" class="fil36" points="4666.82,959.06 4300.98,838.26 4310.1,833.67 "/>
    <polygon id="_28" class="fil36" points="4666.82,959.06 4308.28,834.59 4317.67,830.1 "/>
    <polygon id="_29" class="fil37" points="4666.82,959.06 4315.79,831 4325.44,826.6 "/>
    <polygon id="_30" class="fil37" points="4666.82,959.06 4323.51,827.48 4333.43,823.19 "/>
    <polygon id="_31" class="fil38" points="4666.82,959.06 4331.44,824.05 4341.61,819.85 "/>
    <polygon id="_32" class="fil39" points="4666.82,959.06 4339.58,820.69 4349.99,816.6 "/>
    <polygon id="_33" class="fil39" points="4666.82,959.06 4347.9,817.42 4358.56,813.44 "/>
    <polygon id="_34" class="fil40" points="4666.82,959.06 4356.43,814.23 4367.31,810.36 "/>
    <polygon id="_35" class="fil41" points="4666.82,959.06 4365.13,811.13 4376.25,807.37 "/>
    <polygon id="_36" class="fil41" points="4666.82,959.06 4374.02,808.12 4385.36,804.48 "/>
    <polygon id="_37" class="fil42" points="4666.82,959.06 4383.09,805.21 4394.64,801.67 "/>
    <polygon id="_38" class="fil43" points="4666.82,959.06 4392.33,802.38 4404.08,798.96 "/>
    <polygon id="_39" class="fil44" points="4666.82,959.06 4401.73,799.65 4413.68,796.35 "/>
    <polygon id="_40" class="fil45" points="4666.82,959.06 4411.29,797.01 4423.44,793.84 "/>
    <polygon id="_41" class="fil46" points="4666.82,959.06 4421.01,794.47 4433.34,791.42 "/>
    <polygon id="_42" class="fil46" points="4666.82,959.06 4430.87,792.03 4443.38,789.11 "/>
    <polygon id="_43" class="fil47" points="4666.82,959.06 4440.88,789.69 4453.56,786.9 "/>
    <polygon id="_44" class="fil48" points="4666.82,959.06 4451.02,787.46 4463.86,784.79 "/>
    <polygon id="_45" class="fil48" points="4666.82,959.06 4461.29,785.32 4474.29,782.79 "/>
    <polygon id="_46" class="fil49" points="4666.82,959.06 4471.69,783.3 4484.83,780.89 "/>
    <polygon id="_47" class="fil50" points="4666.82,959.06 4482.2,781.37 4495.48,779.1 "/>
    <polygon id="_48" class="fil50" points="4666.82,959.06 4492.83,779.56 4506.24,777.42 "/>
    <polygon id="_49" class="fil51" points="4666.82,959.06 4503.56,777.85 4517.09,775.85 "/>
    <polygon id="_50" class="fil52" points="4666.82,959.06 4514.38,776.25 4528.03,774.39 "/>
    <polygon id="_51" class="fil53" points="4666.82,959.06 4525.3,774.76 4539.06,773.04 "/>
    <polygon id="_52" class="fil54" points="4666.82,959.06 4536.31,773.39 4550.16,771.8 "/>
    <polygon id="_53" class="fil55" points="4666.82,959.06 4547.39,772.12 4561.34,770.68 "/>
    <polygon id="_54" class="fil56" points="4666.82,959.06 4558.55,770.97 4572.57,769.67 "/>
    <polygon id="_55" class="fil57" points="4666.82,959.06 4569.77,769.93 4583.87,768.77 "/>
    <polygon id="_56" class="fil58" points="4666.82,959.06 4581.05,769 4595.21,767.99 "/>
    <polygon id="_57" class="fil59" points="4666.82,959.06 4592.38,768.19 4606.6,767.32 "/>
    <polygon id="_58" class="fil60" points="4666.82,959.06 4603.75,767.49 4618.02,766.77 "/>
    <polygon id="_59" class="fil60" points="4666.82,959.06 4615.17,766.91 4629.47,766.33 "/>
    <polygon id="_60" class="fil61" points="4666.82,959.06 4626.61,766.45 4640.95,766.01 "/>
    <polygon id="_61" class="fil62" points="4666.82,959.06 4638.08,766.1 4652.44,765.81 "/>
    <polygon id="_62" class="fil62" points="4666.82,959.06 4649.57,765.87 4663.94,765.72 "/>
    <polygon id="_63" class="fil63" points="4666.82,959.06 4661.06,765.75 4675.44,765.75 "/>
    <polygon id="_64" class="fil63" points="4666.82,959.06 4672.57,765.75 4686.94,765.9 "/>
    <polygon id="_65" class="fil64" points="4666.82,959.06 4684.06,765.87 4698.42,766.16 "/>
    <polygon id="_66" class="fil65" points="4666.82,959.06 4695.55,766.1 4709.89,766.54 "/>
    <polygon id="_67" class="fil66" points="4666.82,959.06 4707.02,766.45 4721.32,767.03 "/>
    <polygon id="_68" class="fil67" points="4666.82,959.06 4718.46,766.91 4732.73,767.64 "/>
    <polygon id="_69" class="fil68" points="4666.82,959.06 4729.88,767.49 4744.1,768.37 "/>
    <polygon id="_70" class="fil69" points="4666.82,959.06 4741.25,768.19 4755.42,769.2 "/>
    <polygon id="_71" class="fil69" points="4666.82,959.06 4752.58,769 4766.68,770.16 "/>
    <polygon id="_72" class="fil70" points="4666.82,959.06 4763.86,769.93 4777.89,771.23 "/>
    <polygon id="_73" class="fil71" points="4666.82,959.06 4775.08,770.97 4789.03,772.41 "/>
    <polygon id="_74" class="fil72" points="4666.82,959.06 4786.24,772.12 4800.09,773.7 "/>
    <polygon id="_75" class="fil73" points="4666.82,959.06 4797.32,773.39 4811.08,775.11 "/>
    <polygon id="_76" class="fil74" points="4666.82,959.06 4808.33,774.76 4821.98,776.62 "/>
    <polygon id="_77" class="fil75" points="4666.82,959.06 4819.25,776.25 4832.78,778.25 "/>
    <polygon id="_78" class="fil75" points="4666.82,959.06 4830.07,777.85 4843.49,779.98 "/>
    <polygon id="_79" class="fil75" points="4666.82,959.06 4840.8,779.56 4854.09,781.83 "/>
    <polygon id="_80" class="fil76" points="4666.82,959.06 4851.43,781.37 4864.57,783.78 "/>
    <polygon id="_81" class="fil76" points="4666.82,959.06 4861.94,783.3 4874.94,785.83 "/>
    <polygon id="_82" class="fil77" points="4666.82,959.06 4872.34,785.32 4885.18,787.99 "/>
    <polygon id="_83" class="fil78" points="4666.82,959.06 4882.61,787.46 4895.29,790.25 "/>
    <polygon id="_84" class="fil78" points="4666.82,959.06 4892.75,789.69 4905.26,792.62 "/>
    <polygon id="_85" class="fil79" points="4666.82,959.06 4902.76,792.03 4915.09,795.08 "/>
    <polygon id="_86" class="fil80" points="4666.82,959.06 4912.62,794.47 4924.77,797.65 "/>
    <polygon id="_87" class="fil81" points="4666.82,959.06 4922.34,797.01 4934.29,800.31 "/>
    <polygon id="_88" class="fil81" points="4666.82,959.06 4931.9,799.65 4943.65,803.06 "/>
    <polygon id="_89" class="fil82" points="4666.82,959.06 4941.3,802.38 4952.85,805.91 "/>
    <polygon id="_90" class="fil83" points="4666.82,959.06 4950.54,805.21 4961.87,808.85 "/>
    <polygon id="_91" class="fil84" points="4666.82,959.06 4959.61,808.12 4970.72,811.89 "/>
    <polygon id="_92" class="fil85" points="4666.82,959.06 4968.5,811.13 4979.38,815.01 "/>
    <polygon id="_93" class="fil86" points="4666.82,959.06 4977.2,814.23 4987.86,818.22 "/>
    <polygon id="_94" class="fil87" points="4666.82,959.06 4985.73,817.42 4996.14,821.51 "/>
    <polygon id="_95" class="fil87" points="4666.82,959.06 4994.05,820.69 5004.22,824.89 "/>
    <polygon id="_96" class="fil88" points="4666.82,959.06 5002.19,824.05 5012.1,828.34 "/>
    <polygon id="_97" class="fil89" points="4666.82,959.06 5010.12,827.48 5019.77,831.88 "/>
    <polygon id="_98" class="fil89" points="4666.82,959.06 5017.84,831 5027.23,835.49 "/>
    <polygon id="_99" class="fil90" points="4666.82,959.06 5025.35,834.59 5034.47,839.18 "/>
    <polygon id="_100" class="fil91" points="4666.82,959.06 5032.65,838.26 5041.49,842.93 "/>
    <polygon id="_101" class="fil92" points="4666.82,959.06 5039.72,842 5048.29,846.76 "/>
    <polygon id="_102" class="fil92" points="4666.82,959.06 5046.57,845.81 5054.85,850.66 "/>
    <polygon id="_103" class="fil93" points="4666.82,959.06 5053.19,849.69 5061.18,854.62 "/>
    <polygon id="_104" class="fil94" points="4666.82,959.06 5059.58,853.63 5067.27,858.65 "/>
    <polygon id="_105" class="fil94" points="4666.82,959.06 5065.74,857.64 5073.13,862.73 "/>
    <polygon id="_106" class="fil95" points="4666.82,959.06 5071.65,861.71 5078.73,866.87 "/>
    <polygon id="_107" class="fil95" points="4666.82,959.06 5077.32,865.84 5084.09,871.07 "/>
    <polygon id="_108" class="fil96" points="4666.82,959.06 5082.74,870.03 5089.2,875.32 "/>
    <polygon id="_109" class="fil97" points="4666.82,959.06 5087.91,874.26 5094.06,879.63 "/>
    <polygon id="_110" class="fil97" points="4666.82,959.06 5092.83,878.55 5098.65,883.98 "/>
    <polygon id="_111" class="fil98" points="4666.82,959.06 5097.49,882.89 5102.99,888.37 "/>
    <polygon id="_112" class="fil99" points="4666.82,959.06 5101.89,887.27 5107.06,892.81 "/>
    <polygon id="_113" class="fil100" points="4666.82,959.06 5106.03,891.7 5110.87,897.29 "/>
    <polygon id="_114" class="fil101" points="4666.82,959.06 5109.9,896.17 5114.41,901.8 "/>
    <polygon id="_115" class="fil101" points="4666.82,959.06 5113.51,900.67 5117.68,906.35 "/>
    <polygon id="_116" class="fil102" points="4666.82,959.06 5116.85,905.21 5120.68,910.93 "/>
    <polygon id="_117" class="fil103" points="4666.82,959.06 5119.91,909.79 5123.41,915.54 "/>
    <polygon id="_118" class="fil104" points="4666.82,959.06 5122.71,914.39 5125.86,920.18 "/>
    <polygon id="_119" class="fil105" points="4666.82,959.06 5125.23,919.02 5128.03,924.84 "/>
    <polygon id="_120" class="fil106" points="4666.82,959.06 5127.47,923.67 5129.93,929.52 "/>
    <polygon id="_121" class="fil107" points="4666.82,959.06 5129.44,928.35 5131.55,934.21 "/>
    <polygon id="_122" class="fil108" points="4666.82,959.06 5131.12,933.04 5132.88,938.93 "/>
    <polygon id="_123" class="fil109" points="4666.82,959.06 5132.53,937.75 5133.94,943.65 "/>
    <polygon id="_124" class="fil109" points="4666.82,959.06 5133.66,942.47 5134.72,948.39 "/>
    <polygon id="_125" class="fil110" points="4666.82,959.06 5134.51,947.2 5135.21,953.13 "/>
    <polygon id="_126" class="fil111" points="4666.82,959.06 5135.07,951.94 5135.42,957.87 "/>
    <polygon id="_127" class="fil111" points="4666.82,959.06 5135.35,956.69 5135.35,962.62 "/>
    <polygon id="_128" class="fil112" points="4666.82,959.06 5135.35,961.43 5135,967.36 "/>
    <polygon id="_129" class="fil113" points="4666.82,959.06 5135.07,966.17 5134.36,972.1 "/>
    <polygon id="_130" class="fil114" points="4666.82,959.06 5134.51,970.91 5133.45,976.83 "/>
    <polygon id="_131" class="fil115" points="4666.82,959.06 5133.66,975.64 5132.25,981.55 "/>
    <polygon id="_132" class="fil116" points="4666.82,959.06 5132.53,980.37 5130.77,986.25 "/>
    <polygon id="_133" class="fil117" points="4666.82,959.06 5131.12,985.07 5129.02,990.94 "/>
    <polygon id="_134" class="fil118" points="4666.82,959.06 5129.44,989.77 5126.98,995.61 "/>
    <polygon id="_135" class="fil119" points="4666.82,959.06 5127.47,994.44 5124.67,1000.26 "/>
    <polygon id="_136" class="fil119" points="4666.82,959.06 5125.23,999.1 5122.08,1004.88 "/>
    <polygon id="_137" class="fil120" points="4666.82,959.06 5122.71,1003.73 5119.21,1009.48 "/>
    <polygon id="_138" class="fil120" points="4666.82,959.06 5119.91,1008.33 5116.08,1014.04 "/>
    <polygon id="_139" class="fil121" points="4666.82,959.06 5116.85,1012.9 5112.67,1018.58 "/>
    <polygon id="_140" class="fil122" points="4666.82,959.06 5113.51,1017.44 5109,1023.07 "/>
    <polygon id="_141" class="fil122" points="4666.82,959.06 5109.9,1021.95 5105.06,1027.53 "/>
    <polygon id="_142" class="fil123" points="4666.82,959.06 5106.03,1026.41 5100.85,1031.95 "/>
    <polygon id="_143" class="fil123" points="4666.82,959.06 5101.89,1030.84 5096.39,1036.32 "/>
    <polygon id="_144" class="fil123" points="4666.82,959.06 5097.49,1035.22 5091.66,1040.65 "/>
    <polygon id="_145" class="fil124" points="4666.82,959.06 5092.83,1039.56 5086.68,1044.92 "/>
    <polygon id="_146" class="fil124" points="4666.82,959.06 5087.91,1043.85 5081.45,1049.15 "/>
    <polygon id="_147" class="fil125" points="4666.82,959.06 5082.74,1048.09 5075.96,1053.32 "/>
    <polygon id="_148" class="fil126" points="4666.82,959.06 5077.32,1052.27 5070.23,1057.43 "/>
    <polygon id="_149" class="fil127" points="4666.82,959.06 5071.65,1056.4 5064.26,1061.49 "/>
    <polygon id="_150" class="fil127" points="4666.82,959.06 5065.74,1060.47 5058.05,1065.48 "/>
    <polygon id="_151" class="fil128" points="4666.82,959.06 5059.58,1064.48 5051.6,1069.41 "/>
    <polygon id="_152" class="fil129" points="4666.82,959.06 5053.19,1068.43 5044.92,1073.27 "/>
    <polygon id="_153" class="fil129" points="4666.82,959.06 5046.57,1072.3 5038.01,1077.07 "/>
    <polygon id="_154" class="fil130" points="4666.82,959.06 5039.72,1076.12 5030.88,1080.79 "/>
    <polygon id="_155" class="fil131" points="4666.82,959.06 5032.65,1079.86 5023.53,1084.44 "/>
    <polygon id="_156" class="fil132" points="4666.82,959.06 5025.35,1083.52 5015.96,1088.02 "/>
    <polygon id="_157" class="fil133" points="4666.82,959.06 5017.84,1087.12 5008.19,1091.51 "/>
    <polygon id="_158" class="fil134" points="4666.82,959.06 5010.12,1090.63 5000.2,1094.93 "/>
    <polygon id="_159" class="fil135" points="4666.82,959.06 5002.19,1094.07 4992.02,1098.26 "/>
    <polygon id="_160" class="fil135" points="4666.82,959.06 4994.05,1097.42 4983.64,1101.51 "/>
    <polygon id="_161" class="fil136" points="4666.82,959.06 4985.73,1100.7 4975.07,1104.68 "/>
    <polygon id="_162" class="fil137" points="4666.82,959.06 4977.2,1103.88 4966.32,1107.76 "/>
    <polygon id="_163" class="fil137" points="4666.82,959.06 4968.5,1106.98 4957.38,1110.74 "/>
    <polygon id="_164" class="fil138" points="4666.82,959.06 4959.61,1109.99 4948.27,1113.64 "/>
    <polygon id="_165" class="fil139" points="4666.82,959.06 4950.54,1112.91 4938.99,1116.44 "/>
    <polygon id="_166" class="fil140" points="4666.82,959.06 4941.3,1115.74 4929.55,1119.15 "/>
    <polygon id="_167" class="fil140" points="4666.82,959.06 4931.9,1118.47 4919.95,1121.76 "/>
    <polygon id="_168" class="fil141" points="4666.82,959.06 4922.34,1121.1 4910.19,1124.28 "/>
    <polygon id="_169" class="fil141" points="4666.82,959.06 4912.62,1123.64 4900.29,1126.69 "/>
    <polygon id="_170" class="fil141" points="4666.82,959.06 4902.76,1126.08 4890.25,1129.01 "/>
    <polygon id="_171" class="fil142" points="4666.82,959.06 4892.75,1128.42 4880.07,1131.22 "/>
    <polygon id="_172" class="fil142" points="4666.82,959.06 4882.61,1130.66 4869.77,1133.32 "/>
    <polygon id="_173" class="fil143" points="4666.82,959.06 4872.34,1132.79 4859.34,1135.33 "/>
    <polygon id="_174" class="fil144" points="4666.82,959.06 4861.94,1134.82 4848.8,1137.22 "/>
    <polygon id="_175" class="fil145" points="4666.82,959.06 4851.43,1136.74 4838.15,1139.01 "/>
    <polygon id="_176" class="fil146" points="4666.82,959.06 4840.8,1138.56 4827.39,1140.69 "/>
    <polygon id="_177" class="fil146" points="4666.82,959.06 4830.07,1140.27 4816.54,1142.26 "/>
    <polygon id="_178" class="fil147" points="4666.82,959.06 4819.25,1141.86 4805.6,1143.72 "/>
    <polygon id="_179" class="fil148" points="4666.82,959.06 4808.33,1143.35 4794.57,1145.07 "/>
    <polygon id="_180" class="fil149" points="4666.82,959.06 4797.32,1144.73 4783.47,1146.31 "/>
    <polygon id="_181" class="fil150" points="4666.82,959.06 4786.24,1145.99 4772.29,1147.44 "/>
    <polygon id="_182" class="fil151" points="4666.82,959.06 4775.08,1147.15 4761.06,1148.45 "/>
    <polygon id="_183" class="fil152" points="4666.82,959.06 4763.86,1148.19 4749.76,1149.34 "/>
    <polygon id="_184" class="fil153" points="4666.82,959.06 4752.58,1149.11 4738.42,1150.13 "/>
    <polygon id="_185" class="fil154" points="4666.82,959.06 4741.25,1149.92 4727.03,1150.79 "/>
    <polygon id="_186" class="fil154" points="4666.82,959.06 4729.88,1150.62 4715.61,1151.35 "/>
    <polygon id="_187" class="fil154" points="4666.82,959.06 4718.46,1151.2 4704.16,1151.78 "/>
    <polygon id="_188" class="fil155" points="4666.82,959.06 4707.02,1151.67 4692.68,1152.1 "/>
    <polygon id="_189" class="fil155" points="4666.82,959.06 4695.55,1152.02 4681.19,1152.31 "/>
    <polygon id="_190" class="fil156" points="4666.82,959.06 4684.06,1152.25 4669.69,1152.39 "/>
    <polygon id="_191" class="fil157" points="4666.82,959.06 4672.57,1152.36 4658.19,1152.36 "/>
    <polygon id="_192" class="fil158" points="4666.82,959.06 4661.06,1152.36 4646.69,1152.22 "/>
    <polygon id="_193" class="fil159" points="4666.82,959.06 4649.57,1152.25 4635.21,1151.96 "/>
    <polygon id="_194" class="fil160" points="4666.82,959.06 4638.08,1152.02 4623.75,1151.58 "/>
    <polygon id="_195" class="fil161" points="4666.82,959.06 4626.61,1151.67 4612.31,1151.08 "/>
    <polygon id="_196" class="fil162" points="4666.82,959.06 4615.17,1151.2 4600.9,1150.48 "/>
    <polygon id="_197" class="fil163" points="4666.82,959.06 4603.75,1150.62 4589.53,1149.75 "/>
    <polygon id="_198" class="fil164" points="4666.82,959.06 4592.38,1149.92 4578.21,1148.91 "/>
    <polygon id="_199" class="fil165" points="4666.82,959.06 4581.05,1149.11 4566.95,1147.96 "/>
    <polygon id="_200" class="fil166" points="4666.82,959.06 4569.77,1148.19 4555.74,1146.89 "/>
    <polygon id="_201" class="fil167" points="4666.82,959.06 4558.55,1147.15 4544.6,1145.71 "/>
    <polygon id="_202" class="fil168" points="4666.82,959.06 4547.39,1145.99 4533.54,1144.41 "/>
    <polygon id="_203" class="fil168" points="4666.82,959.06 4536.31,1144.73 4522.55,1143.01 "/>
    <polygon id="_204" class="fil169" points="4666.82,959.06 4525.3,1143.35 4511.65,1141.49 "/>
    <polygon id="_205" class="fil170" points="4666.82,959.06 4514.38,1141.86 4500.85,1139.87 "/>
    <polygon id="_206" class="fil170" points="4666.82,959.06 4503.56,1140.27 4490.14,1138.13 "/>
    <polygon id="_207" class="fil171" points="4666.82,959.06 4492.83,1138.56 4479.54,1136.29 "/>
    <polygon id="_208" class="fil171" points="4666.82,959.06 4482.2,1136.74 4469.06,1134.34 "/>
    <polygon id="_209" class="fil172" points="4666.82,959.06 4471.69,1134.82 4458.69,1132.28 "/>
    <polygon id="_210" class="fil173" points="4666.82,959.06 4461.29,1132.79 4448.45,1130.12 "/>
    <polygon id="_211" class="fil174" points="4666.82,959.06 4451.02,1130.66 4438.34,1127.86 "/>
    <polygon id="_212" class="fil175" points="4666.82,959.06 4440.88,1128.42 4428.37,1125.5 "/>
    <polygon id="_213" class="fil176" points="4666.82,959.06 4430.87,1126.08 4418.54,1123.03 "/>
    <polygon id="_214" class="fil177" points="4666.82,959.06 4421.01,1123.64 4408.86,1120.47 "/>
    <polygon id="_215" class="fil177" points="4666.82,959.06 4411.29,1121.1 4399.34,1117.81 "/>
    <polygon id="_216" class="fil178" points="4666.82,959.06 4401.73,1118.47 4389.98,1115.05 "/>
    <polygon id="_217" class="fil179" points="4666.82,959.06 4392.33,1115.74 4380.78,1112.2 "/>
    <polygon id="_218" class="fil179" points="4666.82,959.06 4383.09,1112.91 4371.76,1109.26 "/>
    <polygon id="_219" class="fil180" points="4666.82,959.06 4374.02,1109.99 4362.91,1106.23 "/>
    <polygon id="_220" class="fil181" points="4666.82,959.06 4365.13,1106.98 4354.25,1103.11 "/>
    <polygon id="_221" class="fil182" points="4666.82,959.06 4356.43,1103.88 4345.77,1099.9 "/>
    <polygon id="_222" class="fil183" points="4666.82,959.06 4347.9,1100.7 4337.49,1096.61 "/>
    <polygon id="_223" class="fil184" points="4666.82,959.06 4339.58,1097.42 4329.41,1093.23 "/>
    <polygon id="_224" class="fil185" points="4666.82,959.06 4331.44,1094.07 4321.53,1089.77 "/>
    <polygon id="_225" class="fil186" points="4666.82,959.06 4323.51,1090.63 4313.86,1086.24 "/>
    <polygon id="_226" class="fil187" points="4666.82,959.06 4315.79,1087.12 4306.4,1082.63 "/>
    <polygon id="_227" class="fil188" points="4666.82,959.06 4308.28,1083.52 4299.16,1078.94 "/>
    <polygon id="_228" class="fil189" points="4666.82,959.06 4300.98,1079.86 4292.14,1075.18 "/>
    <polygon id="_229" class="fil190" points="4666.82,959.06 4293.91,1076.12 4285.34,1071.35 "/>
    <polygon id="_230" class="fil191" points="4666.82,959.06 4287.06,1072.3 4278.78,1067.46 "/>
    <polygon id="_231" class="fil192" points="4666.82,959.06 4280.44,1068.43 4272.45,1063.49 "/>
    <polygon id="_232" class="fil193" points="4666.82,959.06 4274.05,1064.48 4266.36,1059.47 "/>
    <polygon id="_233" class="fil194" points="4666.82,959.06 4267.89,1060.47 4260.5,1055.38 "/>
    <polygon id="_234" class="fil195" points="4666.82,959.06 4261.98,1056.4 4254.9,1051.24 "/>
    <polygon id="_235" class="fil196" points="4666.82,959.06 4256.31,1052.27 4249.54,1047.04 "/>
    <polygon id="_236" class="fil197" points="4666.82,959.06 4250.89,1048.09 4244.43,1042.79 "/>
    <polygon id="_237" class="fil198" points="4666.82,959.06 4245.72,1043.85 4239.57,1038.49 "/>
    <polygon id="_238" class="fil199" points="4666.82,959.06 4240.8,1039.56 4234.98,1034.14 "/>
    <polygon id="_239" class="fil200" points="4666.82,959.06 4236.14,1035.22 4230.64,1029.75 "/>
    <polygon id="_240" class="fil201" points="4666.82,959.06 4231.74,1030.84 4226.57,1025.31 "/>
    <polygon id="_241" class="fil202" points="4666.82,959.06 4227.6,1026.41 4222.76,1020.83 "/>
    <polygon id="_242" class="fil203" points="4666.82,959.06 4223.73,1021.95 4219.22,1016.32 "/>
    <polygon id="_243" class="fil204" points="4666.82,959.06 4220.12,1017.44 4215.95,1011.77 "/>
    <polygon id="_244" class="fil205" points="4666.82,959.06 4216.78,1012.9 4212.95,1007.19 "/>
    <polygon id="_245" class="fil206" points="4666.82,959.06 4213.72,1008.33 4210.22,1002.58 "/>
    <polygon id="_246" class="fil207" points="4666.82,959.06 4210.92,1003.73 4207.77,997.94 "/>
    <polygon id="_247" class="fil208" points="4666.82,959.06 4208.4,999.1 4205.6,993.28 "/>
    <polygon id="_248" class="fil209" points="4666.82,959.06 4206.16,994.44 4203.7,988.6 "/>
    <polygon id="_249" class="fil210" points="4666.82,959.06 4204.19,989.77 4202.08,983.9 "/>
    <polygon id="_250" class="fil211" points="4666.82,959.06 4202.51,985.07 4200.75,979.19 "/>
    <polygon id="_251" class="fil212" points="4666.82,959.06 4201.1,980.37 4199.69,974.46 "/>
    <polygon id="_252" class="fil213" points="4666.82,959.06 4199.97,975.64 4198.91,969.73 "/>
    <polygon id="_253" class="fil214" points="4666.82,959.06 4199.12,970.91 4198.42,964.99 "/>
    <polygon id="_254" class="fil215" points="4666.82,959.06 4198.56,966.17 4198.21,960.24 "/>
    <polygon id="_255" class="fil14" points="4666.82,959.06 4198.28,961.43 4198.28,956.69 "/>
   </g>
   <path id="_256" class="fil1 str0" d="M4938.41 917.04c19.42,4.88 17.92,30.67 0,30.32 -36.46,0 -72.92,0 -109.38,0 -29.79,0.28 -62.78,11.23 -98.55,31.41 -121.52,78.77 -237.54,74.67 -354.87,90.6 86.33,-40.73 47.6,-246.05 -30.86,-250.71 142.55,4.2 280.55,15.96 388.59,77.66 25.64,15.32 56.38,24.08 95.96,21.49 36.37,-0.26 72.74,-0.51 109.11,-0.77zm-575.05 52.84l-2.87 -23.36 37.57 -2.85c0.53,11.12 -2.67,19.78 -11.71,24.52l-22.99 1.69z"/>
  </g>
  <path class="fil216 str0" d="M2699.28 870.09c194.37,-5.33 388.75,-10.65 583.12,-15.98 28,2.95 54.66,-2.51 80.42,-14.03 116.69,-42.95 233.38,-85.89 350.07,-128.84 19.82,-6.25 37.32,-17.31 65.8,-14.35 65.69,-7.26 187.85,13.32 197.06,-21.79 -3.22,-28.52 -134.87,-5.97 -202.31,-8.96 -38.73,-3.27 -69.14,19.63 -103.71,29.45 -110.43,41.7 -220.86,83.41 -331.29,125.11 -24.72,10.48 -43.27,10.73 -61.24,10.03 -164.36,-1.94 -328.71,-3.89 -493.07,-5.83 -49.86,1.56 -67.75,23.14 -84.85,45.19z"/>
  <path class="fil217 str0" d="M2620.37 1713c-10.21,19.51 -29.06,24.66 -50.08,26.17l-508.1 31.19 122.71 -56.49 378.75 -14.52c27.96,-3.37 47.93,0.23 56.72,13.65zm-804.35 72.47l-114.12 7.01c-0.56,-9.38 -1.13,-18.75 -1.69,-28.13 21.82,0.05 42.72,-6.39 62.48,-20.97 21.1,9.5 39.06,22.1 49.55,42.18l3.78 -0.09z"/>
  <path class="fil1 str0" d="M3017.36 1250.26c61.66,7.5 120.42,0.55 168.65,-59.09l-68.46 6.5 -100.19 52.59z"/>
  <path class="fil1 str0" d="M3270.37 1230.66c-0.08,-16.6 -0.16,-33.19 -0.24,-49.79l-118.3 13.54 34.18 -3.24c-7.05,8.72 -14.33,16.32 -21.81,22.9 20.38,19.88 58.35,22.95 106.17,16.59z"/>
  <path class="fil1 str0" d="M3883.97 1092.4c-1.46,44.53 -59.61,56.96 -177.27,35.72 59.09,-11.91 118.18,-23.81 177.27,-35.72zm69.13 -6.13c41.93,1.11 102.71,4.45 154.06,6.68 -15.16,22.94 -155.67,10.76 -154.06,-6.68z"/>
  <path class="fil218 str1" d="M2667.67 1107.72c-45.06,-1.51 -81.21,-38.07 -82.07,-83.29l42.85 0c0.83,21.55 17.83,38.95 39.22,40.41l0 42.88z"/>
  <path class="fil219 str1" d="M2755.56 1024.43c-0.86,45.22 -37.01,81.77 -82.06,83.29l0 -42.88c21.39,-1.46 38.38,-18.86 39.21,-40.41l42.85 0z"/>
  <g>
   <path class="fil3" d="M2670.58 1068.22c23.29,0 42.16,-18.87 42.16,-42.16l-0.03 -1.63 42.85 0 0.02 -1.65c0,-46.95 -38.05,-85 -85,-85 -46.95,0 -85,38.05 -85,85l0.02 1.65 42.85 0 -0.03 1.63c0,23.29 18.87,42.16 42.16,42.16zm42.13 -43.81l-84.26 0 -0.03 -1.63c0,-23.29 18.87,-42.16 42.16,-42.16 23.29,0 42.16,18.87 42.16,42.16l-0.03 1.63zm42.26 8.57c-0.17,1.4 -0.38,2.8 -0.61,4.18 0.23,-1.38 0.44,-2.78 0.61,-4.18zm-11.18 33.01c-0.67,1.13 -1.37,2.24 -2.08,3.33 0.72,-1.1 1.41,-2.2 2.08,-3.33zm-144.34 3.33c-0.72,-1.09 -1.42,-2.21 -2.08,-3.33l2.08 3.33zm-12.65 -32.16c-0.24,-1.38 -0.44,-2.77 -0.61,-4.18 0.17,1.4 0.37,2.8 0.61,4.18z"/>
   <path id="_1_1" class="fil1 str1" d="M2670.58 1068.22c23.29,0 42.16,-18.87 42.16,-42.16l-0.03 -1.63 42.85 0 0.02 -1.65c0,-46.95 -38.05,-85 -85,-85 -46.95,0 -85,38.05 -85,85l0.02 1.65 42.85 0 -0.03 1.63c0,23.29 18.87,42.16 42.16,42.16zm42.13 -43.81l-84.26 0 -0.03 -1.63c0,-23.29 18.87,-42.16 42.16,-42.16 23.29,0 42.16,18.87 42.16,42.16l-0.03 1.63zm42.26 8.57c-0.17,1.4 -0.38,2.8 -0.61,4.18 0.23,-1.38 0.44,-2.78 0.61,-4.18zm-11.18 33.01c-0.67,1.13 -1.37,2.24 -2.08,3.33 0.72,-1.1 1.41,-2.2 2.08,-3.33zm-144.34 3.33c-0.72,-1.09 -1.42,-2.21 -2.08,-3.33m-10.57 -28.83c-0.24,-1.38 -0.44,-2.77 -0.61,-4.18 0.17,1.4 0.37,2.8 0.61,4.18z"/>
  </g>
  <path class="fil220 str1" d="M3319.37 773.76l68.33 0c7.36,0 13.37,6.01 13.37,13.37l0 0.04c-4.87,5.76 -11.71,11.67 -20.91,17.77l-41.72 15.76c-11.95,5.07 -22.46,7.73 -32.16,9.07 -0.18,-0.88 -0.28,-1.79 -0.28,-2.73l0 -39.91c0,-7.36 6.01,-13.37 13.37,-13.37zm73.56 246.7l78.53 0 0 34.57c0,19.02 -15.55,34.57 -34.57,34.57l-9.39 0c-19.02,0 -34.57,-15.55 -34.57,-34.57l0 -34.57z"/>
  <path class="fil1 str1" d="M611.26 1520.89l54.63 0 0 34.6 -54.63 0 0 -34.6zm88.32 21.85l54.63 0 0 34.6 -54.63 0 0 -34.6z"/>
  <path class="fil221 str0" d="M611.26 1520.89l54.63 0 0 34.6 -54.63 0 0 -34.6zm88.32 21.85l54.63 0 0 34.6 -54.63 0 0 -34.6z"/>
  <path class="fil222 str0" d="M198.25 456.33l72.33 -12.98c5.04,-0.91 9.89,2.47 10.8,7.51 0.9,5.04 -2.48,9.89 -7.51,10.79l-72.33 12.98c-5.04,0.91 -9.89,-2.47 -10.8,-7.51 -0.9,-5.04 2.48,-9.89 7.51,-10.79zm6.46 28.67l41.69 -7.48c2.9,-0.53 5.7,1.42 6.22,4.32 0.52,2.91 -1.43,5.7 -4.32,6.22l-41.69 7.48c-2.9,0.53 -5.7,-1.42 -6.22,-4.32 -0.52,-2.91 1.43,-5.7 4.32,-6.22z"/>
 </g>
 <g id="Capa_x0020_3">
  <metadata id="CorelCorpID_1Corel-Layer"/>
  <path class="fil223 str0" d="M848.14 1448.94c97.06,-56.02 209.8,-63.88 301.26,-70.61 251.47,-52.02 516.56,-94.18 779.11,-125.38 -83.17,25.79 -71.22,36.43 31.93,27.94 345.19,-57.35 747.45,-71.83 1150.9,-85.47 -20.48,-1.92 -42.14,-3.55 -64.77,-4.91 27.18,0.57 53.94,1.32 80.25,2.29 -225.41,118.32 -450.83,236.63 -676.24,354.95 31.71,0 63.41,0 95.12,0 -168.55,77.6 -337.11,155.21 -505.66,232.81 -75.93,1.67 -151.87,3.33 -227.8,5 -13.33,-25.51 -38.74,-38.96 -67.28,-49.29 -232.2,-90.7 -464.4,-181.41 -696.6,-272.11 -57.78,-21.87 -133.48,-10.15 -200.22,-15.22zm1172.74 318.32c-9.62,0.34 -19.23,0.69 -28.85,1.03 3.05,-33.77 -24.58,-55.63 -65.95,-72.13 -217.99,-102.97 -435.98,-205.95 -653.97,-308.92 232.53,-32.83 465.05,-65.67 697.58,-98.5 337.92,-61.78 656.79,-66.51 978.55,-79.87 9.99,14.23 19.99,28.47 29.98,42.7 -5.15,2.73 -10.3,5.45 -15.45,8.18 -11.51,-12.42 -23.01,-24.84 -34.52,-37.26 -162.21,9.99 -324.44,20.96 -486.64,22 24.38,10.1 48.77,20.21 73.15,30.31 20.57,8.63 36.52,19.03 1.05,49.12 -47.38,31 -94.75,62.01 -142.13,93.01 -44.42,32.07 -83.96,18.78 -122.27,-6.27 -52.61,-29.28 -105.21,-58.57 -157.82,-87.85 -22.41,-18.55 -48.95,-23.27 -79.68,-14.06 -82.29,17.71 -164.57,35.41 -246.86,53.12 1.19,26.79 2.39,53.59 3.58,80.38 2.62,41.46 -47.72,46.9 -55.7,3.6 -1.8,-20.96 -3.6,-57.82 -5.4,-78.78 -103.02,7.79 -206.03,31.46 -309.05,39.25 174.38,81.24 348.75,169.13 523.13,250.37 65.28,19.05 102.35,61.4 97.27,110.57zm120.98 -474.09c91.64,-8.58 183.28,-17.15 274.92,-25.73 25.19,13.4 50.37,26.8 75.56,40.2 -46.62,30.55 -93.25,61.09 -139.87,91.64 -22.06,13.42 -41.72,10.09 -59.49,-6.43 -50.37,-33.23 -100.75,-66.45 -151.12,-99.68z"/>
  <path class="fil224 str0" d="M1960.44 1280.89c-114.84,9.45 -116.66,-4.81 0,-37.29 261.96,-40.41 840.17,-77.34 1150.9,-48.18 -403.45,13.64 -805.71,28.12 -1150.9,85.47z"/>
 </g>
 <g id="Copyright">
  <metadata id="CorelCorpID_2Corel-Layer"/>
  <path class="fil224 str0" d="M3904.43 1653.13c33.41,0 61.86,21.22 72.61,50.91l-21.17 0c-9.57,-18.68 -29,-31.46 -51.44,-31.46 -31.9,0 -57.75,25.85 -57.75,57.75 0,31.9 25.85,57.75 57.75,57.75 22.44,0 41.87,-12.78 51.44,-31.46l21.17 0c-10.75,29.69 -39.2,50.91 -72.61,50.91 -42.64,0 -77.2,-34.56 -77.2,-77.2 0,-42.64 34.56,-77.2 77.2,-77.2zm0.04 -68.74c80.6,0 145.94,65.34 145.94,145.94 0,80.6 -65.34,145.94 -145.94,145.94 -80.6,0 -145.94,-65.34 -145.94,-145.94 0,-80.6 65.34,-145.94 145.94,-145.94zm0 27.56c65.38,0 118.38,53 118.38,118.38 0,65.38 -53,118.38 -118.38,118.38 -65.38,0 -118.38,-53 -118.38,-118.38 0,-65.38 53,-118.38 118.38,-118.38zm323.72 21.29c0.85,-0.32 1.27,-0.85 1.27,-1.38 0,-1.8 -4.23,-4.23 -17.04,-4.55 -5.4,-0.21 -21.69,-0.32 -41.8,-0.32 36.51,-41.38 84.35,-88.68 97.15,-91.33 0.85,-0.21 1.59,-0.31 2.33,-0.31 2.12,0 3.39,1.05 3.39,3.91 0,3.81 -2.12,10.69 -6.67,22.54 -9.1,23.5 -35.14,73.45 -50.38,96.1 -15.13,22.64 -54.82,85.82 -63.18,99.58 -5.5,9 -7.51,14.4 -7.51,18.1 0,2.01 0.53,3.49 1.48,4.87 2.65,3.81 8.68,6.98 8.68,6.98 0,0 11.01,-22.64 16.4,-30.48 5.29,-7.72 42.23,-66.99 52.71,-85.19 10.47,-18.2 41.69,-78.21 50.37,-100.33 5.19,-13.23 6.88,-23.91 6.88,-31.11 0,-4.76 -0.74,-7.94 -1.69,-9.42 -1.27,-1.8 -3.18,-2.64 -5.72,-2.64 -19.79,0 -76.3,52.49 -114.93,98.63l-30.27 0c-33.12,0 -65.29,0.1 -73.76,0.42 -16.3,0.64 -26.67,3.07 -26.67,5.93 0,0.21 0,0.53 0.21,0.74 0.85,1.37 3.6,1.8 6.67,1.8 3.81,0 8.04,-0.64 9.74,-1.17 0.52,-0.1 0.63,-0.31 0.63,-0.63 0,-0.21 -0.11,-0.42 -0.11,-0.74 0,-1.27 2.12,-2.96 24.13,-3.81 4.87,-0.21 10.59,-0.21 17.04,-0.21 20.11,0 46.46,0.63 69.64,1.16 -16.83,20.32 -29.74,39.16 -34.08,51.22 -0.63,1.91 -0.95,3.81 -0.95,5.82 0,5.82 2.43,11.33 3.49,11.33 0.64,0 0.74,-0.53 0.74,-1.27 0,-1.27 -0.32,-3.18 -0.42,-5.29 0,-0.85 -0.11,-1.7 -0.11,-2.54 0,-2.44 0.32,-4.55 1.48,-6.88 4.66,-9.74 20.54,-29.85 40.11,-52.18 8.26,0.11 15.77,0.21 22.23,0.21 5.29,0 9.74,-0.1 13.23,-0.21 2.85,-0.1 5.29,-0.21 7.51,-0.21 16.83,0 17.78,2.86 17.78,2.86zm61.7 -25.72c0,0 -3.39,4.13 -6.77,7.94 -3.28,3.81 -12.91,16.83 -16.72,20.21 -3.71,3.49 -8.15,11.54 -11.12,14.82 -2.96,3.28 -12.27,19.15 -12.27,21.27 0.21,1.91 0.42,2.75 4.55,2.86 4.02,0 37.57,-21.8 38.73,-22.44l1.27 -0.74c0,0 0.21,-0.32 0.21,-0.53 0,-0.21 -0.1,-0.32 -0.42,-0.32l-0.11 0c-0.95,0.11 -13.33,7.94 -18.41,10.48 -4.97,2.65 -13.44,6.99 -14.39,6.99 0,-0.96 18.62,-25.51 22.54,-29.53 4.02,-4.23 8.04,-9.84 9.1,-11.54 0.95,-1.58 9.21,-11.11 11.11,-12.91 2.01,-1.8 2.44,-2.11 2.44,-2.11 0,0 -1.38,-5.82 -5.72,-5.82 -1.16,0 -2.43,0.42 -4.02,1.37zm-3.18 35.03c0,0 -9.52,20.21 -9.73,24.55l0 0.43c0,3.07 1.79,5.5 4.23,5.5 0.85,0 1.8,-0.21 2.75,-0.85 3.28,-2.11 18.2,-19.05 22.86,-24.87 2.01,1.38 5.61,2.44 8.57,2.44 1.17,0 2.33,-0.11 3.18,-0.53l1.05 -0.53c0,0 -1.16,0.21 -2.64,0.21 -1.17,0 -2.44,-0.1 -3.71,-0.42 -2.75,-0.53 -4.12,-1.59 -4.12,-3.49 0,-0.22 0.1,-0.53 0.1,-0.85 0,0 -0.84,-2.22 -2.11,-2.44l-0.21 0c-0.96,0 -2.23,1.17 -2.23,2.65 0,0.53 0.21,1.16 0.74,1.8 0.11,0.21 0.22,0.32 0.32,0.42 -4.55,5.29 -14.29,16.3 -16.4,17.78 -0.64,0.43 -1.06,0.64 -1.38,0.64 -0.42,0 -0.63,-0.32 -0.63,-0.96 0,-1.37 1.05,-4.44 3.7,-9.52 4.23,-8.25 4.76,-10.16 5.61,-10.16 0.11,0 0.21,0.11 0.32,0.11l0.1 0c0.21,0 0.32,-0.11 0.32,-0.43 0,-0.95 -1.38,-3.28 -4.55,-3.81 -1.27,-0.21 -2.33,-0.31 -3.07,-0.31 -1.69,0 -2.33,0.63 -3.07,2.64zm45.51 7.2c0.85,0.42 1.8,1.16 2.54,2.86 -5.93,4.65 -12.06,9.31 -13.02,9.31l-0.1 0c-0.21,-0.11 -0.32,-0.32 -0.32,-0.74 0,-1.7 1.91,-5.72 5.08,-9.21 1.69,-1.8 3.28,-2.33 4.66,-2.33 0.42,0 0.84,0 1.16,0.11zm17.89 -2.12l0 -0.74c0,-2.54 -1.38,-4.55 -3.28,-4.55 -1.17,0 -2.44,0.74 -3.6,2.54 0,0 -0.74,1.06 -1.91,2.65 -1.8,1.37 -3.81,2.96 -5.92,4.55 -0.96,-2.86 -2.65,-6.35 -5.08,-7.94l-0.11 -0.11c-1.06,-0.63 -2.33,-1.06 -3.92,-1.06 -0.95,0 -1.9,0.11 -3.06,0.43 -7.31,2.11 -12.39,13.44 -12.39,18.2l0 0.21c0,4.34 3.18,5.82 5.4,5.82l0.64 0c2.32,-0.42 10.79,-6.88 16.08,-11.21l2.54 -2.02c0.11,0.32 0.21,0.64 0.32,1.06 -6.03,8.89 -13.65,20.96 -13.65,25.72 0,0.74 0.21,1.38 0.63,1.69 0.43,0.21 0.85,0.32 1.38,0.32 8.99,0 38.73,-31.22 38.73,-31.33l-1.06 -0.42c-5.18,4.34 -15.66,15.77 -29.42,24.02 2.65,-7.09 17.68,-27.72 17.68,-27.83zm-13.87 7.2c-0.1,-0.21 -0.1,-0.53 -0.21,-0.85l1.69 -1.37c-0.42,0.74 -0.95,1.48 -1.48,2.22zm22.54 -6.99c-2.54,3.6 -7.51,11.22 -7.51,14.61 0,0.42 0.1,0.74 0.21,0.95 0.64,1.38 2.12,2.01 3.6,2.01 1.37,0 2.75,-0.42 3.81,-1.16 2.22,-1.59 15.13,-17.47 20.53,-19.37 1.38,-0.53 2.65,-0.64 3.7,-0.64 2.65,0 4.66,0.85 6.46,0.85 0.53,0 1.06,-0.1 1.59,-0.32 1.48,-0.63 2.43,-0.74 3.17,-0.74 0.53,0 0.85,0.11 0.85,0.11 0,0 -0.53,-0.74 -2.01,-0.74 -0.43,0 -0.96,0.1 -1.7,0.32 -0.84,0.21 -1.37,0.31 -1.9,0.31 -1.17,0 -1.69,-0.53 -3.18,-1.06 -1.16,-0.31 -2.64,-1.05 -4.55,-1.05 -1.37,0 -3.07,0.42 -5.08,1.58 -3.81,2.33 -8.57,7.09 -9.1,7.09 0,-0.42 6.99,-8.25 6.99,-9.73l0 -0.11c-0.85,-2.11 -4.13,-4.02 -6.14,-4.02 -0.42,0 -0.85,0.11 -1.17,0.32 -2.96,1.8 -5.71,6.77 -8.57,10.79zm52.07 2.44c0,0 0.74,0 1.59,-1.17 1.16,0.43 2.64,0.85 4.44,0.85 2.01,0 4.34,-0.53 6.88,-2.01l-0.63 -0.21c0,0 -2.54,0.95 -5.4,0.95 -1.48,0 -3.07,-0.21 -4.55,-0.95l0.11 -0.32c0.21,-0.74 0.42,-1.59 0.42,-2.54 0,-2.65 -1.27,-5.5 -4.66,-5.5l-0.32 0c-4.76,0.31 -10.47,2.54 -16.08,11.11 -2.33,3.49 -3.28,6.56 -3.28,8.99 0,3.6 2.11,5.82 5.08,6.35 0.31,0 0.74,0.11 1.06,0.11 4.65,0 8.14,-4.55 11.32,-8.15 3.39,-3.81 4.02,-7.51 4.02,-7.51zm-10.69 9.1c0,0 0.74,-4.13 3.07,-6.56 1.48,-1.48 3.39,-2.75 4.45,-2.75 0.31,0 0.53,0.21 0.53,0.63 0,0.21 0,0.53 -0.22,0.95 -1.05,2.86 -7.83,7.73 -7.83,7.73zm-235.27 117.24c0,0 -1.48,-3.81 -1.48,-9.84 0,-13.54 7.41,-38.73 55.14,-60.11 29.63,-13.33 63.5,-18.73 94.29,-18.73 41.38,0 77.47,9.63 91.12,22.33 7.41,6.88 11.65,15.98 11.65,25.93 0,22.22 -21.28,48.89 -76.63,65.61 0,0 -14.81,4.13 -27.09,7.83 8.57,-14.6 11.22,-19.26 18.73,-31.32 3.6,-5.82 11.65,-14.5 11.65,-20.75 0,-1.37 -0.32,-2.64 -1.27,-3.7 -3.29,-3.81 -6.25,-5.08 -8.89,-5.08 -4.45,0 -7.41,3.6 -7.41,3.6 -3.92,6.45 -21.7,37.15 -38.21,66.14 -4.23,0.74 -9.63,1.8 -16.72,3.18 -5.71,1.16 -9.84,1.59 -13.44,1.59 -10.05,0 -15.45,-3.6 -37.46,-5.93 -2.44,-0.21 -4.66,-0.32 -6.56,-0.32 -10.38,0 -14.19,3.18 -14.19,6.77 0,4.03 4.87,8.58 10.69,9.53 1.38,0.21 2.86,0.32 4.45,0.32 11.43,0 27.3,-4.87 39.47,-4.87l1.8 0c4.02,0.21 12.17,2.01 23.18,5.08 -11.85,20.95 -21.48,38.31 -22.01,40.21 -0.11,0.43 -0.22,0.96 -0.22,1.49 0,5.18 5.08,13.12 7.52,13.44 1.48,0 16.19,-24.13 31.64,-50.17 27.73,8.57 65.51,22.02 102.34,37.89 63.07,27.2 68.47,55.35 69,55.45 0,0 0.64,0.22 1.38,0.22 1.05,0 2.32,-0.43 2.32,-2.12 0,-0.64 -0.21,-1.59 -0.74,-2.75 -2.64,-6.35 -16.72,-21.38 -36.08,-34.4 -19.48,-12.91 -64.67,-34.6 -99.91,-47.09 -13.44,-4.76 -25.61,-8.68 -35.66,-11.75 3.49,-5.92 6.98,-11.85 10.37,-17.46 22.86,-5.5 74.4,-14.82 104.45,-40.74 11.96,-10.38 19.16,-24.13 19.16,-37.89 0,-25.93 -25.82,-51.86 -94.3,-54.5 -4.76,-0.22 -9.42,-0.22 -13.97,-0.22 -95.03,0 -139.06,37.79 -151.54,52.71 -7.41,8.78 -9.85,19.89 -9.85,28.36 0,6.46 1.49,11.32 3.28,12.06zm119.06 46.36l-3.6 6.24c-5.92,-1.69 -9.41,-2.54 -9.41,-2.54l13.01 -3.7zm131.02 -31.75c0,0 -12.06,15.13 -12.06,18.52l0 0.32c0.42,1.16 1.06,1.8 2.11,1.8 1.38,0 3.29,-0.96 6.04,-2.65 2.96,-1.8 7.83,-4.87 11.21,-7.09 -1.69,2.54 -3.28,5.08 -3.28,6.35 0,0.21 0.11,0.32 0.11,0.42 0.53,1.38 1.38,2.33 2.86,2.33 1.27,0 2.96,-0.74 5.5,-2.64 5.4,-4.03 14.08,-8.15 14.08,-8.15l-1.17 0c0,0 -12.17,6.03 -13.12,6.13 -0.11,0 -0.11,0 -0.11,-0.1 0,-1.06 5.82,-8.68 6.46,-8.68l0.1 0c0.11,0 0.11,-0.11 0.11,-0.21 0,-0.32 -0.74,-1.38 -2.01,-2.22 -0.74,-0.53 -1.59,-0.74 -2.22,-0.74 -0.74,0 -1.38,0.21 -1.8,0.63 0,0 -1.59,1.69 -3.28,4.02 -4.66,3.07 -11.43,7.3 -12.07,7.3l0 -0.1c0,-0.95 7.3,-10.8 8.15,-10.8 0.95,0.11 1.27,0.43 1.27,0.43 0,0 -0.1,-3.18 -2.33,-4.87 -0.95,-0.74 -1.8,-0.95 -2.54,-0.95 -0.84,0 -1.58,0.42 -2.01,0.95zm61.49 -30.27c-0.53,-4.02 -3.49,-5.71 -6.03,-5.71 -1.17,0 -2.23,0.31 -2.97,1.06 -2.11,2.22 -7.09,7.19 -9.31,10.47 -2.22,3.18 -6.67,10.37 -10.48,16.19 -3.81,5.72 -18.62,31.33 -21.27,36.83 -0.42,0.74 -0.53,1.48 -0.53,2.12 0,3.81 5.61,5.29 5.61,5.29l0 -0.42c0,-0.43 0,-1.17 0.43,-2.22 0.74,-1.7 10.68,-18.31 10.68,-18.31 5.72,-5.61 9.63,-7.62 12.17,-7.62 2.33,0 3.39,1.69 3.5,4.12l0 0.22c0,4.55 -3.81,8.78 -6.78,8.78 -0.1,0 -0.31,-0.11 -0.53,-0.11 -1.79,-0.42 -3.17,-3.81 -3.17,-6.13l0 -0.64c0,-0.32 -0.11,-0.42 -0.32,-0.42 -0.21,0 -0.63,0.32 -0.63,0.32 0,0 -0.11,0.84 -0.11,2.01 0,3.17 0.85,8.78 7.09,8.78 0.85,0 1.7,-0.11 2.75,-0.32 6.14,-1.27 9.95,-9.84 9.95,-16.3 0,-3.91 -1.37,-6.98 -4.44,-7.4 -0.43,-0.11 -0.85,-0.11 -1.27,-0.11 -7.73,0 -15.14,9 -15.14,9 0,0 20.53,-30.91 24.45,-35.88 2.54,-3.18 4.44,-3.81 5.5,-3.81 0.53,0 0.85,0.21 0.85,0.21zm13.23 18.63c-1.27,0 -2.33,0.95 -2.33,2.33 0,1.27 1.06,2.32 2.33,2.32 1.27,0 2.33,-1.05 2.33,-2.32 0,-1.38 -1.06,-2.33 -2.33,-2.33zm-8.57 10.05c0,0 -19.16,22.65 -19.16,29.21 0,0.53 0.11,0.95 0.43,1.27 0.31,0.32 0.74,0.42 1.27,0.42 6.66,0 30.26,-20.53 30.26,-20.53l-1.37 0.32c0,0 -20,13.76 -21.48,14.29 -0.11,0 -0.11,0 -0.11,-0.11 0,-1.16 13.97,-18.1 15.03,-19.26 1.16,-1.27 2.01,-2.01 2.01,-2.01 0,0 -1.59,-4.23 -4.76,-4.23 -0.64,0 -1.38,0.21 -2.12,0.63zm27.62 8.47c0.85,0.42 1.8,1.16 2.54,2.86 -5.93,4.65 -12.06,9.31 -13.02,9.31l-0.1 0c-0.21,-0.11 -0.32,-0.32 -0.32,-0.74 0,-1.7 1.91,-5.72 5.08,-9.21 1.69,-1.8 3.28,-2.33 4.66,-2.33 0.42,0 0.84,0 1.16,0.11zm17.89 -2.12l0 -0.74c0,-2.54 -1.38,-4.55 -3.28,-4.55 -1.17,0 -2.44,0.74 -3.6,2.54 0,0 -0.74,1.06 -1.91,2.65 -1.8,1.37 -3.81,2.96 -5.92,4.55 -0.96,-2.86 -2.65,-6.35 -5.08,-7.94l-0.11 -0.11c-1.06,-0.63 -2.33,-1.06 -3.92,-1.06 -0.95,0 -1.9,0.11 -3.06,0.43 -7.31,2.11 -12.39,13.44 -12.39,18.2l0 0.21c0,4.34 3.18,5.82 5.4,5.82l0.64 0c2.32,-0.42 10.79,-6.88 16.08,-11.21l2.54 -2.02c0.11,0.32 0.21,0.64 0.32,1.06 -6.03,8.89 -13.65,20.96 -13.65,25.72 0,0.74 0.21,1.38 0.63,1.69 0.43,0.21 0.85,0.32 1.38,0.32 8.99,0 38.73,-31.22 38.73,-31.33l-1.06 -0.42c-5.18,4.34 -15.66,15.77 -29.42,24.02 2.65,-7.09 17.68,-27.72 17.68,-27.83zm-13.87 7.2c-0.1,-0.21 -0.1,-0.53 -0.21,-0.85l1.69 -1.37c-0.42,0.74 -0.95,1.48 -1.48,2.22zm26.14 -10.69c0,0 -10.69,14.92 -10.69,18.84 0,0.31 0.11,0.63 0.32,0.74 1.9,1.37 3.92,1.48 4.55,1.48l0.32 0c0,0 17.04,-15.24 19.05,-15.98l0.21 0c0,0 0.1,0 0.1,0.1 0,1.06 -4.86,7.84 -4.86,12.07 0,0.95 0.21,1.69 0.74,2.33 0.42,0.42 0.95,0.53 1.69,0.53 6.03,0 22.22,-11.75 22.33,-12.17 0,-0.11 0,-0.11 -0.11,-0.11 -0.52,0 -3.17,1.48 -8.04,4.55 -4.55,2.96 -7.51,4.23 -8.78,4.23 -0.21,0 -0.43,-0.1 -0.53,-0.21l0 -0.1c0,-0.96 7.62,-10.37 7.62,-13.87 0,-0.21 0,-0.42 -0.11,-0.63 -0.74,-1.38 -1.9,-2.22 -3.6,-2.22 -1.9,0 -4.33,0.95 -7.51,3.17 -6.03,4.34 -11.64,8.57 -11.64,8.57 0,0 8.25,-9.31 8.25,-11.64l0 -0.21c-0.42,-0.95 -2.32,-1.48 -4.34,-1.48 -2.01,0 -4.12,0.53 -4.97,2.01zm50.16 6.14c0,0 0.74,0 1.59,-1.17 1.16,0.43 2.64,0.85 4.44,0.85 2.01,0 4.34,-0.53 6.88,-2.01l-0.63 -0.21c0,0 -2.54,0.95 -5.4,0.95 -1.48,0 -3.07,-0.21 -4.55,-0.95l0.11 -0.32c0.21,-0.74 0.42,-1.59 0.42,-2.54 0,-2.65 -1.27,-5.5 -4.66,-5.5l-0.32 0c-4.76,0.31 -10.47,2.54 -16.08,11.11 -2.33,3.49 -3.28,6.56 -3.28,8.99 0,3.6 2.11,5.82 5.08,6.35 0.31,0 0.74,0.11 1.06,0.11 4.65,0 8.14,-4.55 11.32,-8.15 3.39,-3.81 4.02,-7.51 4.02,-7.51zm-10.69 9.1c0,0 0.74,-4.13 3.07,-6.56 1.48,-1.48 3.39,-2.75 4.45,-2.75 0.31,0 0.53,0.21 0.53,0.63 0,0.21 0,0.53 -0.22,0.95 -1.05,2.86 -7.83,7.73 -7.83,7.73z"/>
 </g>
</svg>
