<?xml version="1.0" standalone="no"?>
<!DOCTYPE svg PUBLIC "-//W3C//DTD SVG 20010904//EN"
 "http://www.w3.org/TR/2001/REC-SVG-20010904/DTD/svg10.dtd">
<svg version="1.0" xmlns="http://www.w3.org/2000/svg"
 width="1024.000000pt" height="1024.000000pt" viewBox="0 0 1024.000000 1024.000000"
 preserveAspectRatio="xMidYMid meet">
<metadata>
Created by potrace 1.16, written by Peter Selinger 2001-2019
</metadata>
<g transform="translate(0.000000,1024.000000) scale(0.100000,-0.100000)"
fill="#000000" stroke="none">
<path d="M8650 8264 c-1031 -91 -2423 -592 -3769 -1356 -257 -146 -538 -316
-735 -444 -87 -57 -164 -104 -170 -104 -7 0 -30 -17 -53 -37 -22 -21 -54 -46
-70 -55 -30 -17 -30 -17 -69 18 -44 41 -104 74 -133 74 -11 0 -24 6 -28 13
-11 18 -180 6 -248 -18 -98 -34 -169 -102 -205 -195 -7 -19 -18 -41 -24 -49
-19 -25 -129 -92 -137 -84 -5 5 -10 80 -11 168 l-3 160 -179 -2 c-99 -2 -184
-7 -189 -12 -4 -4 -7 -30 -5 -57 3 -46 5 -49 35 -55 63 -13 63 -13 63 -213 0
-194 -3 -206 -50 -206 -34 0 -54 -15 -47 -34 5 -12 -13 -30 -66 -68 -345 -250
-695 -527 -934 -740 -78 -71 -147 -128 -152 -128 -6 0 -11 44 -13 108 l-3 107
-69 3 c-65 3 -71 1 -90 -23 l-21 -27 -52 21 c-142 56 -354 69 -474 30 -84 -28
-112 -43 -159 -86 -100 -90 -136 -233 -90 -356 25 -65 94 -139 159 -169 48
-22 248 -88 266 -88 6 0 20 -6 30 -14 18 -13 17 -15 -17 -52 -20 -22 -56 -61
-81 -89 l-46 -50 -45 45 c-25 24 -60 73 -76 107 l-31 64 -72 -3 -72 -3 0 -200
0 -200 68 -3 c37 -2 67 -5 67 -8 0 -2 -24 -37 -53 -77 -320 -432 -487 -823
-487 -1138 0 -177 37 -298 130 -424 82 -111 228 -208 400 -264 411 -136 1036
-112 1777 69 739 180 1489 466 2323 886 423 213 863 459 1175 659 104 66 194
124 307 198 l116 77 79 0 c130 0 263 43 339 108 66 56 124 172 124 246 0 14 8
34 19 44 29 27 179 142 185 142 3 0 6 -69 6 -154 l0 -153 -38 -27 c-21 -14
-43 -26 -48 -26 -6 0 -19 -9 -30 -21 -16 -18 -301 -210 -397 -268 -47 -28 -43
-40 4 -13 65 37 235 139 307 185 40 26 77 47 82 47 6 0 10 -18 10 -40 l0 -40
258 2 257 3 0 64 c0 64 0 64 -33 75 -18 6 -37 18 -42 26 -5 8 -10 56 -10 106
l0 92 101 71 c56 40 106 70 111 69 11 -4 13 -306 3 -339 -4 -11 -19 -21 -41
-25 l-35 -6 3 -67 3 -66 253 -3 252 -2 0 70 c0 68 -1 70 -24 70 -14 0 -36 4
-50 10 l-26 10 0 158 c0 188 -14 314 -42 361 -16 28 -17 36 -6 46 7 6 81 64
163 128 641 496 1182 1022 1535 1492 383 509 563 955 520 1287 -66 507 -589
741 -1480 662z m-35 -543 c373 -62 606 -202 715 -428 48 -100 64 -174 64 -303
0 -195 -48 -372 -169 -615 -86 -174 -166 -304 -297 -483 -104 -143 -97 -133
-232 -291 -214 -249 -507 -542 -789 -787 l-79 -68 -121 0 c-113 -1 -126 -3
-177 -29 -30 -16 -69 -42 -85 -58 -17 -16 -34 -29 -38 -29 -4 0 -7 26 -7 58 0
54 2 59 38 87 178 142 567 516 775 745 108 118 146 154 161 152 12 -2 69 -6
128 -9 127 -6 194 10 260 60 50 39 96 109 105 160 l6 37 -81 0 -81 0 -27 -49
c-38 -71 -107 -98 -178 -71 -35 13 -33 24 12 79 60 72 59 82 -1 18 -60 -65
-69 -64 -86 13 -7 31 -7 48 1 57 13 16 124 18 134 2 4 -8 9 -8 17 0 7 7 63 11
148 11 76 0 140 3 142 8 8 13 -13 145 -30 190 -51 137 -181 210 -353 199 -136
-8 -233 -58 -292 -149 -48 -74 -58 -112 -58 -211 0 -63 6 -101 21 -141 21 -58
89 -142 133 -165 14 -8 26 -18 26 -23 0 -39 -526 -522 -870 -799 -218 -175
-183 -159 -337 -159 l-133 0 0 -70 c0 -68 1 -70 25 -70 36 0 31 -24 -8 -49
-19 -11 -51 -34 -72 -51 -40 -31 -65 -28 -65 9 0 24 -49 99 -94 143 -127 126
-412 157 -600 64 -173 -86 -249 -291 -184 -501 19 -63 29 -77 100 -148 66 -64
76 -78 61 -84 -10 -4 -74 -41 -143 -82 -416 -249 -1007 -551 -1455 -743 -1208
-518 -2281 -743 -2967 -623 -136 24 -229 54 -347 112 -98 48 -126 68 -196 137
-101 100 -157 205 -181 336 -27 148 -5 345 58 525 35 102 117 279 135 293 9 6
40 12 67 12 104 0 240 54 307 121 48 48 74 99 90 176 16 76 0 162 -42 229 -16
24 -29 47 -29 50 0 19 267 312 459 504 216 216 387 371 626 569 l109 91 203 0
c112 0 203 -4 203 -8 0 -5 -15 -19 -32 -32 -138 -101 -443 -375 -708 -636
l-245 -241 -75 -13 c-173 -29 -286 -122 -329 -270 -15 -52 -17 -248 -3 -262 7
-7 12 -17 12 -24 0 -27 48 -99 90 -137 180 -160 534 -154 700 12 86 86 125
220 102 351 -16 92 -46 155 -103 212 -59 59 -130 95 -231 117 -43 9 -79 20
-78 24 0 10 238 228 400 367 178 153 349 289 550 440 91 68 171 128 178 133 9
7 24 4 50 -10 65 -35 124 -46 239 -41 123 4 174 22 241 82 42 39 89 134 78
161 -5 13 -21 15 -83 13 l-78 -3 -16 -35 c-30 -63 -63 -85 -129 -85 -58 0
-100 21 -100 49 0 6 42 39 93 74 l92 62 113 0 113 0 -2 72 c-2 59 1 74 15 82
10 6 40 26 68 44 28 18 57 31 65 28 18 -7 19 -368 0 -384 -6 -6 -28 -12 -47
-14 l-35 -3 -3 -63 -3 -62 228 2 228 3 3 57 3 56 -36 12 c-23 8 -37 19 -41 34
-3 13 -4 89 -2 169 3 129 5 149 24 174 42 55 121 56 154 0 18 -28 20 -51 20
-193 0 -173 -1 -175 -53 -188 -27 -6 -28 -8 -25 -64 l3 -57 225 0 224 0 1 50
c0 60 -9 75 -44 75 -48 0 -51 11 -51 207 0 160 -3 189 -21 238 -16 44 -30 62
-62 83 -39 25 -50 27 -147 27 -97 0 -108 -2 -153 -28 -27 -16 -56 -37 -65 -48
-27 -31 -46 -24 -38 13 5 26 2 36 -16 51 -13 10 -18 20 -13 23 6 2 87 47 180
100 1334 753 2692 1223 3650 1263 171 7 397 -1 500 -18z m-5015 -1500 c33 -33
48 -77 33 -100 -8 -12 -31 -17 -102 -19 l-91 -3 0 36 c0 100 95 152 160 86z
m4991 1 c26 -24 32 -36 33 -73 l1 -44 -97 -3 -98 -3 0 32 c0 102 91 153 161
91z m-5439 -249 c4 -51 14 -95 28 -126 l23 -48 -44 -37 c-24 -20 -48 -37 -54
-37 -5 0 -12 18 -15 40 -4 35 -8 40 -39 46 -44 9 -51 22 -51 92 0 57 0 58 46
90 25 17 55 40 66 49 12 10 24 16 28 13 4 -2 10 -40 12 -82z m-2031 -1087 c68
-29 115 -81 149 -166 8 -19 19 -38 24 -42 7 -5 0 -17 -18 -33 -34 -29 -29 -29
-86 -9 -45 17 -55 19 -187 49 -90 20 -136 39 -163 67 -43 46 -12 115 65 144
48 17 163 12 216 -10z m1036 -297 c34 -29 47 -74 51 -186 7 -163 -3 -233 -38
-274 -24 -29 -34 -34 -73 -34 -92 0 -117 56 -117 257 0 168 17 224 75 249 25
11 82 4 102 -12z m4339 -14 c30 -38 44 -111 44 -230 0 -84 -3 -106 -17 -122
-24 -27 -146 -103 -165 -103 -65 0 -81 356 -20 448 21 32 49 43 97 38 28 -3
46 -13 61 -31z m1089 1 c17 -12 12 -19 -71 -84 -49 -39 -93 -67 -98 -62 -4 4
-5 28 -1 51 11 62 59 109 112 109 22 0 48 -6 58 -14z"/>
<path d="M5317 6633 c-4 -3 -7 -33 -7 -65 l0 -58 36 0 c69 0 74 -9 74 -120 l0
-100 -47 34 c-87 61 -162 71 -256 36 -119 -45 -177 -159 -177 -348 0 -123 18
-194 63 -255 90 -119 285 -132 398 -26 17 16 33 29 35 29 2 0 4 -18 4 -40 l0
-40 180 0 181 0 -3 62 c-3 62 -3 63 -33 65 -17 1 -38 12 -47 24 -17 19 -18 55
-18 415 l0 394 -188 0 c-104 0 -192 -3 -195 -7z m64 -429 c42 -37 53 -270 16
-345 -25 -50 -60 -68 -95 -48 -45 25 -57 62 -60 195 -3 101 -1 127 15 160 28
60 80 76 124 38z"/>
<path d="M7594 6626 c-3 -7 -4 -35 -2 -62 l3 -49 43 -6 c23 -3 48 -11 54 -17
7 -7 14 -52 16 -102 4 -74 2 -90 -10 -90 -8 0 -23 9 -33 20 -25 27 -117 60
-169 60 -169 0 -276 -143 -276 -369 0 -231 97 -351 283 -351 71 0 125 21 180
69 l36 32 3 -38 3 -38 178 -3 178 -2 -3 62 c-3 61 -4 63 -31 65 -58 4 -57 -9
-59 427 l-3 401 -193 3 c-157 2 -193 0 -198 -12z m67 -422 c30 -27 41 -85 37
-204 -3 -127 -15 -164 -60 -190 -25 -13 -30 -13 -55 2 -47 28 -65 94 -61 223
3 80 9 119 21 143 28 51 77 62 118 26z"/>
<path d="M6079 6366 c-138 -29 -199 -84 -199 -178 0 -46 4 -58 28 -81 53 -51
168 -46 212 10 29 37 25 76 -10 116 -16 19 -27 37 -23 41 3 3 32 6 64 6 52 0
61 -3 93 -34 26 -24 36 -42 36 -64 0 -76 -33 -100 -182 -132 -127 -27 -138
-30 -179 -56 -52 -32 -72 -81 -67 -163 6 -119 72 -171 217 -171 85 0 143 16
204 56 l38 25 32 -27 c48 -41 89 -54 165 -54 85 0 132 18 168 66 25 32 29 46
32 130 l4 94 -46 0 -46 0 0 -54 c0 -46 -3 -56 -20 -61 -11 -3 -24 -3 -30 0 -6
4 -10 78 -10 192 0 169 -2 191 -21 230 -26 53 -60 78 -135 98 -82 23 -244 28
-325 11z m201 -449 c0 -68 -10 -86 -60 -105 -42 -16 -99 17 -100 59 0 20 45
61 95 87 62 32 65 30 65 -41z"/>
<path d="M5493 5058 c-47 -33 -67 -80 -59 -141 9 -84 82 -138 164 -122 130 24
165 172 62 259 -42 35 -120 37 -167 4z"/>
<path d="M2657 5038 c-3 -11 -2 -98 2 -119 0 -4 20 -9 42 -12 23 -3 46 -11 50
-19 5 -7 9 -178 9 -379 0 -293 -3 -369 -13 -378 -8 -6 -31 -14 -53 -19 l-39
-8 0 -64 0 -65 263 -3 262 -2 0 69 0 68 -40 7 c-24 4 -43 14 -50 25 -6 13 -10
178 -10 465 l0 446 -209 0 c-158 0 -210 -3 -214 -12z"/>
<path d="M4734 4746 c-117 -30 -222 -114 -266 -212 -46 -104 -43 -278 7 -380
28 -57 99 -135 144 -158 68 -36 156 -56 240 -56 207 0 336 94 344 249 l2 46
-89 0 -89 0 -16 -47 c-20 -59 -45 -86 -86 -94 -51 -9 -100 19 -121 69 -35 83
-29 347 9 398 32 42 102 62 151 43 19 -7 21 -34 3 -34 -7 0 -25 -13 -40 -28
-22 -22 -27 -38 -27 -75 0 -85 48 -127 145 -127 88 0 144 39 164 117 29 110
-50 233 -181 281 -57 20 -227 25 -294 8z"/>
<path d="M3264 4716 c-3 -7 -4 -37 -2 -66 l3 -53 45 -11 c39 -10 45 -15 52
-46 4 -19 7 -111 7 -205 0 -194 5 -245 33 -296 71 -130 347 -132 467 -5 37 39
51 34 51 -19 l0 -45 208 2 207 3 2 63 c2 67 2 66 -58 76 -25 5 -39 14 -47 32
-8 17 -12 115 -12 304 l0 280 -210 0 -210 0 0 -69 0 -68 41 -6 c23 -3 47 -11
53 -17 7 -7 11 -70 11 -188 0 -184 -6 -216 -49 -251 -26 -22 -93 -26 -122 -7
-49 33 -54 63 -54 346 l0 260 -205 0 c-165 0 -207 -3 -211 -14z"/>
<path d="M5330 4662 l0 -69 42 -6 c23 -3 48 -14 55 -23 10 -13 13 -70 13 -214
0 -144 -3 -201 -13 -214 -7 -9 -32 -20 -55 -23 l-42 -6 0 -68 0 -69 265 0 265
0 0 70 c0 68 -1 70 -24 70 -14 0 -36 4 -50 10 l-26 9 -2 298 -3 298 -212 3
-213 2 0 -68z"/>
<path d="M2754 6626 c-30 -30 -34 -40 -34 -89 0 -68 30 -109 87 -124 134 -33
220 126 117 216 -29 26 -43 31 -85 31 -45 0 -55 -4 -85 -34z"/>
<path d="M1567 6633 c-4 -3 -7 -84 -7 -180 l0 -173 68 0 68 0 12 60 c10 47 21
69 51 101 37 38 42 40 91 37 l52 -3 -2 -314 c0 -203 -5 -319 -11 -327 -6 -7
-38 -14 -72 -16 l-62 -3 0 -65 0 -65 313 -3 312 -2 0 70 0 70 -63 0 c-102 0
-97 -17 -97 348 l0 312 52 0 c86 0 134 -49 147 -150 l6 -45 70 0 70 0 2 160
c1 88 0 168 -3 178 -5 16 -37 17 -498 17 -271 0 -496 -3 -499 -7z"/>
<path d="M8445 4745 c-116 -28 -207 -100 -258 -204 -31 -64 -32 -70 -32 -191
1 -113 3 -130 27 -181 32 -69 87 -131 146 -166 167 -98 446 -78 563 40 43 44
81 117 83 160 l1 32 -75 3 c-87 3 -120 -3 -120 -23 0 -23 -39 -82 -67 -100
-33 -22 -121 -25 -157 -5 -41 21 -76 88 -76 143 l0 47 248 2 247 3 3 45 c2 25
-2 72 -8 105 -31 158 -130 262 -278 294 -67 14 -182 12 -247 -4z m190 -139
c36 -16 58 -50 69 -107 10 -54 -5 -60 -120 -57 l-99 3 -3 37 c-4 47 20 93 61
118 38 24 47 24 92 6z"/>
<path d="M9325 4746 c-147 -36 -225 -120 -225 -241 0 -61 18 -111 52 -142 28
-27 127 -72 223 -103 166 -54 205 -75 205 -109 0 -38 -37 -56 -114 -55 -91 0
-143 27 -188 96 l-31 49 -66 -3 -66 -3 0 -135 0 -135 58 -3 c53 -3 58 -1 67
22 11 31 15 31 73 6 121 -54 303 -63 420 -22 143 51 210 167 172 298 -27 93
-72 124 -285 195 -141 47 -180 69 -180 104 0 34 36 55 94 55 76 0 125 -20 181
-73 49 -47 51 -48 105 -45 l55 3 3 118 3 117 -59 0 c-46 0 -63 -4 -77 -20 -11
-12 -23 -17 -29 -12 -13 10 -73 28 -136 42 -61 13 -194 11 -255 -4z"/>
</g>
</svg>
