<?xml version="1.0" standalone="no"?>
<!DOCTYPE svg PUBLIC "-//W3C//DTD SVG 20010904//EN"
 "http://www.w3.org/TR/2001/REC-SVG-20010904/DTD/svg10.dtd">
<svg version="1.0" xmlns="http://www.w3.org/2000/svg"
 width="1024.000000pt" height="1024.000000pt" viewBox="0 0 1024.000000 1024.000000"
 preserveAspectRatio="xMidYMid meet">
<metadata>
Created by potrace 1.16, written by Peter Selinger 2001-2019
</metadata>
<g transform="translate(0.000000,1024.000000) scale(0.100000,-0.100000)"
fill="#000000" stroke="none">
<path d="M5446 9538 c-4 -15 -5 -36 -1 -47 9 -30 -11 -61 -41 -61 -19 0 -28 8
-40 35 -8 19 -16 35 -19 35 -3 0 -5 -38 -5 -85 0 -87 13 -113 24 -50 6 31 11
35 37 35 23 0 32 -6 40 -27 14 -35 6 -325 -9 -368 -7 -18 -13 -169 -16 -382
-4 -300 -7 -357 -21 -385 -15 -30 -15 -66 -6 -388 6 -195 13 -476 16 -625 2
-148 8 -295 11 -326 5 -47 3 -63 -15 -95 -19 -33 -21 -52 -19 -129 l3 -89 33
-7 c28 -6 35 -3 41 15 12 30 -2 317 -17 343 -16 28 -16 165 0 181 19 19 26 15
33 -18 9 -41 25 -48 25 -11 0 18 -7 34 -17 40 -16 8 -19 34 -25 223 -3 117
-11 292 -17 388 -5 96 -10 319 -10 495 -1 265 2 325 14 349 13 24 15 91 15
410 0 211 4 387 9 395 8 12 12 12 25 2 9 -8 16 -19 16 -27 0 -7 5 -16 10 -19
6 -4 10 21 9 67 0 69 -1 72 -16 51 -8 -13 -24 -23 -34 -23 -15 0 -19 10 -21
63 -3 50 -5 57 -12 35z"/>
<path d="M5620 8001 c0 -109 2 -121 19 -131 12 -6 21 -24 24 -43 l4 -32 1 36
c2 40 23 65 47 55 21 -8 19 15 -6 77 -11 29 -25 62 -30 75 -5 13 -14 20 -19
17 -6 -4 -13 7 -16 25 -14 68 -24 35 -24 -79z"/>
<path d="M4885 7689 c4 -140 13 -320 21 -402 8 -81 14 -196 14 -255 0 -59 4
-113 9 -121 32 -50 42 170 16 343 -8 55 -15 140 -15 191 0 50 -5 116 -10 146
-6 30 -14 119 -19 198 -5 78 -12 145 -15 149 -4 3 -4 -109 -1 -249z"/>
<path d="M5664 7763 c-3 -16 -14 -53 -23 -83 l-18 -55 -50 -3 -51 -3 -1 -916
c-1 -801 -3 -920 -16 -940 -17 -25 -44 -30 -63 -11 -8 8 -12 47 -12 109 l0 97
-115 0 -115 1 0 -125 c0 -136 -8 -164 -45 -164 -54 0 -55 6 -55 328 0 224 -4
314 -15 367 -8 38 -15 110 -15 160 0 49 -5 110 -11 135 -6 25 -14 74 -17 110
-6 56 -10 65 -27 63 -10 -1 -24 5 -30 13 -9 14 -16 14 -55 0 -53 -18 -270 -22
-301 -5 -15 7 -24 7 -35 -2 -9 -7 -29 -9 -54 -5 -46 7 -50 -2 -23 -59 15 -31
15 -42 4 -85 -7 -27 -16 -73 -21 -102 -31 -199 -53 -238 -136 -238 -29 0 -56
5 -59 10 -17 27 -25 -11 -25 -115 0 -62 -3 -120 -6 -129 -8 -20 -99 -23 -111
-3 -4 6 -10 63 -13 126 l-5 113 -112 0 c-61 0 -116 -3 -122 -7 -7 -4 -11 -100
-11 -290 0 -318 1 -315 -69 -315 -65 0 -65 0 -71 323 l-5 291 -53 0 c-64 1
-72 11 -72 87 0 109 -13 269 -22 269 -5 0 -14 -11 -20 -25 -9 -21 -8 -32 5
-61 13 -25 17 -61 16 -132 0 -109 -8 -137 -35 -137 -18 0 -19 -13 -24 -291 -4
-226 -8 -295 -19 -307 -10 -13 -30 -17 -80 -17 -97 0 -106 9 -107 112 -1 46
-2 89 -3 96 -1 10 -128 12 -633 10 l-633 -3 0 -150 0 -150 85 -3 c47 -1 91 -5
98 -7 17 -6 17 -169 -1 -183 -14 -12 -247 -16 -262 -5 -6 5 -19 35 -29 68 -10
33 -30 79 -43 103 -24 41 -26 42 -78 42 -51 0 -55 -2 -83 -40 -16 -23 -35 -62
-42 -88 -26 -101 -1 -92 -240 -92 -195 0 -211 1 -229 19 -20 20 -20 20 -26
-22 -4 -26 0 -76 10 -127 34 -168 45 -225 50 -255 3 -16 7 -104 8 -195 l2
-165 57 3 c65 4 78 -8 78 -75 0 -57 -10 -83 -31 -83 -22 0 -26 -42 -7 -87 6
-15 12 -62 12 -103 l1 -75 31 -3 c19 -2 33 2 36 10 4 12 -4 175 -18 340 -5 57
-3 69 11 74 8 4 24 -1 34 -10 10 -9 25 -16 34 -16 9 0 21 -9 27 -20 9 -16 21
-20 69 -20 38 0 63 -5 70 -14 8 -9 11 -63 9 -167 l-3 -154 -35 0 c-30 0 -35 4
-38 25 -8 81 -14 110 -23 110 -5 0 -9 -27 -9 -61 0 -40 -5 -65 -15 -75 -8 -9
-15 -33 -15 -53 0 -22 6 -44 15 -51 10 -8 15 -31 15 -71 0 -33 4 -59 10 -59 6
0 10 26 10 58 0 32 5 63 12 70 7 7 44 12 94 12 81 0 83 1 108 33 l25 32 840 4
840 3 9 -33 8 -34 465 -3 465 -2 17 35 17 35 1073 0 1074 0 17 -37 c33 -75 56
-113 69 -113 6 0 20 -14 29 -30 16 -28 21 -30 77 -30 55 0 61 2 81 29 11 17
29 32 39 36 10 3 25 22 34 43 9 20 21 44 26 52 5 8 12 23 15 33 5 16 26 17
254 17 236 0 251 1 275 20 24 19 39 21 187 20 135 -2 164 1 179 14 15 14 55
16 294 16 237 0 278 2 291 16 9 8 16 22 16 29 0 8 13 21 29 29 16 9 34 29 39
46 6 16 16 30 21 30 6 0 18 15 26 33 9 17 26 52 40 77 49 93 135 337 135 383
0 12 5 34 10 51 6 17 26 85 45 151 48 162 84 252 150 379 l56 106 -42 -6 c-30
-5 -43 -3 -50 7 -15 24 -10 69 15 122 14 29 30 73 37 100 11 47 25 60 35 32
19 -48 24 10 22 243 l-2 257 -6 -200 c-6 -193 -15 -248 -44 -283 -6 -8 -24
-42 -41 -75 -26 -55 -33 -62 -56 -59 -30 3 -39 -16 -39 -85 0 -56 -15 -63
-134 -63 -84 0 -98 -3 -113 -20 -14 -16 -30 -20 -81 -20 -35 0 -71 -4 -81 -10
-10 -5 -87 -12 -172 -16 -179 -8 -176 -9 -181 81 -2 48 -7 60 -20 63 -16 3
-18 -6 -18 -88 0 -105 -9 -130 -48 -130 -41 0 -52 17 -52 82 l0 58 -59 0 c-33
0 -66 3 -75 6 -14 5 -16 -4 -16 -59 0 -42 -5 -68 -14 -76 -7 -6 -52 -13 -100
-16 -78 -4 -122 -18 -146 -45 -3 -3 -54 -6 -113 -5 -100 0 -108 1 -113 20 -5
20 10 75 20 75 3 0 17 -5 32 -10 15 -6 52 -8 86 -4 53 6 59 9 64 33 3 14 15
45 26 68 20 38 21 45 8 97 -10 43 -10 62 -2 81 11 24 13 24 153 27 101 2 144
7 146 15 3 9 -34 13 -154 15 l-158 3 -5 70 c-5 61 -9 74 -37 103 -26 27 -38
32 -77 32 -41 0 -49 -4 -64 -29 -9 -17 -25 -32 -34 -35 -15 -3 -18 -16 -19
-73 0 -61 -4 -106 -26 -275 -4 -32 0 -60 11 -88 19 -47 21 -121 4 -138 -7 -7
-41 -12 -83 -12 -59 0 -75 -4 -90 -20 -12 -14 -25 -18 -41 -14 -15 4 -34 0
-49 -10 -32 -21 -98 -21 -116 1 -10 12 -15 67 -19 212 l-5 196 -50 -4 c-28 -2
-60 -11 -73 -22 -16 -12 -33 -16 -52 -13 -16 4 -37 0 -51 -9 -33 -20 -193 -31
-207 -14 -6 6 -12 44 -15 82 -2 39 -10 123 -16 187 -13 123 -10 544 4 608 8
33 7 34 -10 20 -15 -12 -62 -14 -287 -13 -149 1 -278 5 -288 8 -26 8 -33 30
-39 115 l-6 75 -72 -3 c-68 -4 -73 -2 -82 20 -21 54 -44 218 -38 269 6 50 5
55 -21 75 -25 21 -27 27 -30 118 -3 82 -1 104 19 151 12 30 31 57 41 61 20 6
48 53 48 80 0 12 -6 15 -25 10 -29 -7 -45 16 -45 68 0 26 5 36 20 41 26 8 26
41 0 55 -17 9 -20 7 -26 -17z m-3849 -3174 c4 -12 16 -19 31 -19 15 0 37 -13
57 -34 18 -19 42 -37 54 -41 12 -3 32 -19 43 -36 15 -20 30 -29 48 -29 67 0
93 -60 47 -106 -24 -24 -26 -24 -182 -22 l-158 3 -3 147 c-2 124 0 148 14 162
18 19 39 8 49 -25z"/>
<path d="M6401 7610 c-1 -8 -4 -159 -6 -335 -2 -176 -4 -338 -5 -360 -2 -53
11 -207 17 -201 9 9 12 620 4 766 -4 80 -9 138 -10 130z"/>
<path d="M6266 7244 c-3 -9 -6 -69 -6 -134 0 -65 -4 -121 -9 -124 -17 -11 -38
5 -49 37 -8 24 -10 -8 -9 -138 l2 -170 45 -6 c28 -4 48 -2 52 5 4 6 8 77 8
157 0 112 -4 156 -16 185 -27 64 -5 154 31 124 13 -11 15 -8 15 18 0 48 -49
84 -64 46z"/>
<path d="M1180 5966 c0 -39 -5 -70 -13 -78 -41 -43 -57 -89 -57 -171 0 -92 7
-92 49 -5 19 38 33 54 49 56 23 3 23 7 21 90 -1 48 2 99 6 115 8 32 -8 57 -36
57 -17 0 -19 -8 -19 -64z"/>
<path d="M1067 3574 c-15 -16 -7 -73 12 -83 10 -6 22 -18 26 -28 13 -34 36
-168 44 -259 5 -50 13 -106 19 -125 6 -19 13 -73 16 -121 3 -48 11 -99 16
-113 6 -14 10 -52 10 -83 0 -31 7 -84 15 -117 8 -33 14 -81 15 -107 0 -26 4
-67 10 -90 11 -49 28 -180 40 -315 4 -50 13 -100 19 -111 6 -12 11 -55 11 -96
0 -42 4 -76 8 -76 8 0 18 79 36 270 3 25 12 99 20 165 9 66 20 172 26 235 5
63 14 131 20 150 5 19 10 84 10 145 l0 110 -20 -25 c-24 -32 -27 -24 -34 101
-3 53 -10 108 -16 123 -5 15 -10 51 -10 80 0 29 -7 75 -15 102 -8 27 -15 69
-15 94 -1 25 -6 74 -13 110 l-12 65 -116 3 c-63 1 -118 -1 -122 -4z"/>
<path d="M1528 3574 c-4 -3 -7 -363 -8 -800 0 -437 -3 -807 -6 -823 -4 -21
-13 -31 -28 -33 -17 -2 -21 -10 -21 -43 l0 -40 152 -3 152 -3 7 25 c8 34 -4
66 -26 66 -10 0 -20 10 -24 23 -3 12 -6 361 -6 774 l0 753 25 16 c28 18 39 45
30 73 -5 17 -17 19 -123 20 -65 1 -121 -1 -124 -5z"/>
<path d="M2216 3572 c-3 -3 -6 -20 -6 -39 0 -26 6 -36 25 -45 l24 -11 3 -706
c3 -728 0 -811 -37 -851 -10 -11 -15 -31 -13 -52 l3 -33 139 -3 c105 -2 141 1
148 10 14 23 9 66 -10 80 -38 28 -42 105 -42 794 0 362 3 683 6 711 5 39 12
54 25 58 22 7 34 44 24 75 -6 20 -13 21 -145 19 -76 0 -141 -3 -144 -7z"/>
<path d="M2964 3555 c-8 -32 3 -63 26 -70 14 -4 20 -19 25 -58 9 -73 0 -1405
-10 -1447 -4 -19 -16 -45 -27 -56 -13 -15 -18 -33 -16 -55 l3 -34 118 0 118 0
3 775 c2 426 6 794 11 818 5 28 15 48 30 58 25 16 39 53 29 78 -5 12 -31 15
-155 15 -148 0 -149 0 -155 -24z"/>
<path d="M3836 3573 c-3 -4 -6 -21 -6 -40 0 -26 6 -36 25 -45 l25 -11 0 -717
c0 -713 -4 -813 -34 -835 -14 -11 -19 -32 -17 -72 1 -23 3 -23 145 -23 122 0
145 2 150 16 11 28 6 53 -12 71 -40 39 -43 104 -40 843 l3 705 28 27 c27 27
34 52 19 75 -8 12 -274 18 -286 6z"/>
<path d="M4559 3567 c-5 -82 5 -564 11 -571 13 -13 18 23 23 149 5 107 11 145
45 269 9 33 17 83 17 110 l0 51 -47 2 c-32 2 -48 -2 -49 -10z"/>
<path d="M4730 2796 c0 -431 -3 -804 -6 -829 -5 -37 -11 -47 -28 -49 -17 -2
-21 -10 -21 -43 l0 -40 150 -3 c132 -2 151 -1 162 15 19 25 16 41 -13 68 -16
15 -30 42 -35 67 -4 24 -8 393 -9 821 l0 777 -100 0 -100 0 0 -784z"/>
<path d="M5006 3573 c-12 -13 -5 -62 19 -134 28 -80 66 -344 58 -396 -3 -17 0
-39 5 -49 10 -17 11 -17 17 6 3 14 4 149 3 300 l-3 275 -47 2 c-25 1 -49 -1
-52 -4z"/>
<path d="M5730 3438 c0 -80 7 -178 15 -223 8 -44 14 -120 15 -168 0 -49 4
-107 10 -130 13 -54 32 -309 34 -452 l1 -110 -55 -5 c-54 -5 -55 -6 -58 -39
-4 -42 8 -50 63 -43 34 3 47 0 64 -17 19 -19 21 -32 21 -170 0 -122 -3 -151
-16 -161 -10 -9 -14 -26 -12 -49 l3 -36 139 -3 c105 -2 141 1 148 10 13 22 9
57 -11 77 -28 28 -48 173 -71 526 -5 77 -14 156 -20 175 -5 19 -10 75 -10 125
0 50 -5 106 -10 125 -6 19 -13 82 -16 140 -3 58 -9 130 -15 160 -5 30 -14 126
-19 213 -5 87 -14 167 -20 177 -9 17 -22 20 -95 20 l-85 0 0 -142z"/>
<path d="M6510 3540 c0 -29 6 -41 25 -54 l26 -17 -3 -760 c-3 -753 -3 -761
-23 -777 -27 -22 -36 -48 -29 -78 6 -24 7 -24 144 -24 76 0 145 3 154 6 11 4
16 19 16 44 0 32 -4 39 -22 42 -43 6 -47 65 -48 861 0 406 2 742 5 747 3 5 1
19 -5 30 -10 19 -20 20 -125 19 l-115 -1 0 -38z"/>
<path d="M6827 3573 c-15 -14 -6 -64 21 -114 l27 -53 0 -307 0 -307 -25 -34
c-31 -42 -35 -110 -7 -131 28 -20 36 -83 37 -279 0 -199 15 -368 36 -413 54
-113 106 -135 161 -67 55 68 105 257 68 257 -5 0 -12 -13 -15 -30 -5 -27 -10
-31 -40 -26 -6 0 -10 75 -10 199 0 159 -3 208 -17 248 -26 77 -58 122 -90 126
-21 2 -29 10 -36 33 -10 36 0 64 48 125 74 94 95 176 94 360 0 135 -19 249
-46 282 -7 7 -16 26 -22 41 -7 17 -18 27 -31 27 -15 0 -26 11 -36 35 -13 33
-17 35 -62 35 -27 0 -52 -3 -55 -7z"/>
<path d="M7570 3541 c0 -30 6 -42 25 -55 l25 -16 0 -715 c0 -709 -4 -805 -34
-830 -19 -15 -27 -44 -20 -71 6 -24 6 -24 149 -24 140 0 143 0 149 22 9 36 7
46 -13 65 -39 37 -42 105 -39 846 3 671 4 709 21 719 23 12 37 49 30 76 -5 20
-12 21 -149 21 l-144 0 0 -38z"/>
<path d="M8296 3573 c-3 -4 -6 -19 -6 -34 0 -27 18 -53 42 -61 10 -4 14 -151
16 -709 3 -743 0 -820 -39 -847 -15 -10 -19 -23 -17 -50 l3 -37 118 0 118 0 0
870 0 870 -115 2 c-63 1 -117 -1 -120 -4z"/>
<path d="M8622 3568 c-18 -18 -14 -59 7 -82 39 -42 45 -138 48 -781 3 -529 2
-620 -12 -682 -9 -39 -25 -83 -36 -96 -23 -31 -25 -82 -3 -91 30 -12 42 -6 49
25 4 19 16 34 30 39 25 10 92 137 107 205 52 231 72 439 64 680 -11 325 -39
505 -94 610 -12 22 -28 55 -37 73 -9 18 -26 37 -39 42 -15 5 -27 20 -31 39 -7
33 -31 41 -53 19z"/>
<path d="M5667 3028 c-6 -108 -22 -268 -36 -383 -17 -127 -32 -262 -41 -370
-11 -133 -29 -243 -46 -282 -8 -17 -14 -39 -14 -48 0 -9 -9 -19 -20 -22 -25
-7 -35 -44 -20 -72 10 -20 18 -22 88 -19 l77 3 3 37 c2 26 -2 40 -16 50 -10 7
-24 28 -30 47 -15 41 -16 202 -2 268 5 26 14 104 20 173 6 69 17 181 25 250
26 222 39 440 28 451 -7 7 -12 -18 -16 -83z"/>
<path d="M1128 2448 c3 -407 0 -440 -50 -525 -11 -18 -18 -45 -16 -60 3 -28 4
-28 80 -31 68 -2 78 -1 87 17 11 20 6 46 -14 71 -7 8 -20 38 -30 65 -16 43
-20 98 -26 385 -7 323 -15 446 -28 454 -3 2 -5 -167 -3 -376z"/>
<path d="M3430 2403 c-4 -123 -54 -349 -91 -409 -10 -17 -19 -39 -19 -49 0 -9
-9 -19 -20 -22 -16 -4 -20 -14 -20 -49 l0 -44 85 0 85 0 0 295 c0 190 -4 295
-10 295 -5 0 -10 -8 -10 -17z"/>
</g>
</svg>
